<?xml version="1.0" standalone="no"?>
<!DOCTYPE svg PUBLIC "-//W3C//DTD SVG 1.1//EN" "http://www.w3.org/Graphics/SVG/1.1/DTD/svg11.dtd">
<svg width="104mm" height="28mm" viewBox="-52 -14 104 28" xmlns="http://www.w3.org/2000/svg" version="1.1">
<title>OpenSCAD Model</title>
<path d="
M 51.5704,-13.4704 L -51.5704,-13.4704 L -51.5704,13.4704 L 51.5704,13.4704 z
M -39.0643,7.94167 L -40.9368,7.48012 L -42.6445,6.58386 L -44.0881,5.30498 L -45.1836,3.71777 L -45.8675,1.91452
 L -46.1,-0 L -45.8675,-1.91452 L -45.1836,-3.71777 L -44.0881,-5.30498 L -42.6445,-6.58386 L -40.9368,-7.48012
 L -39.0643,-7.94167 L -37.1357,-7.94167 L -35.2632,-7.48012 L -33.5555,-6.58386 L -32.1119,-5.30498 L -31.0163,-3.71777
 L -30.3325,-1.91452 L -30.1,-0 L -30.3325,1.91452 L -31.0163,3.71777 L -32.1119,5.30498 L -33.5555,6.58386
 L -35.2632,7.48012 L -37.1357,7.94167 z
M 37.1357,7.94167 L 35.2632,7.48012 L 33.5555,6.58386 L 32.1119,5.30498 L 31.0163,3.71777 L 30.3325,1.91452
 L 30.1,-0 L 30.3325,-1.91452 L 31.0163,-3.71777 L 32.1119,-5.30498 L 33.5555,-6.58386 L 35.2632,-7.48012
 L 37.1357,-7.94167 L 39.0643,-7.94167 L 40.9368,-7.48012 L 42.6445,-6.58386 L 44.0881,-5.30498 L 45.1836,-3.71777
 L 45.8675,-1.91452 L 46.1,-0 L 45.8675,1.91452 L 45.1836,3.71777 L 44.0881,5.30498 L 42.6445,6.58386
 L 40.9368,7.48012 L 39.0643,7.94167 z
" stroke="black" fill="lightgray" stroke-width="0.5"/>
</svg>
