solid OpenSCAD_Model
  facet normal 0 -0.980785 -0.195091
    outer loop
      vertex 10.415 1.75 8.89
      vertex 12.425 1.61679 9.5597
      vertex 10.415 1.61679 9.5597
    endloop
  endfacet
  facet normal 0 -0.980785 -0.195091
    outer loop
      vertex 12.425 1.61679 9.5597
      vertex 10.415 1.75 8.89
      vertex 12.425 1.75 8.89
    endloop
  endfacet
  facet normal 0 0.980785 -0.195091
    outer loop
      vertex 12.425 -1.75 8.89
      vertex 10.415 -1.61679 9.5597
      vertex 12.425 -1.61679 9.5597
    endloop
  endfacet
  facet normal 0 0.980785 -0.195091
    outer loop
      vertex 10.415 -1.61679 9.5597
      vertex 12.425 -1.75 8.89
      vertex 10.415 -1.75 8.89
    endloop
  endfacet
  facet normal -4.33189e-17 -0.195091 -0.980785
    outer loop
      vertex 10.415 -4.996e-16 10.64
      vertex 12.425 0.669696 10.5068
      vertex 12.425 -9.45907e-16 10.64
    endloop
  endfacet
  facet normal -0 -0.195091 -0.980785
    outer loop
      vertex 12.425 0.669696 10.5068
      vertex 10.415 -4.996e-16 10.64
      vertex 10.415 0.669696 10.5068
    endloop
  endfacet
  facet normal 0 -0.195091 0.980785
    outer loop
      vertex 10.415 0.669696 7.27321
      vertex 12.425 -1.72306e-15 7.14
      vertex 12.425 0.669696 7.27321
    endloop
  endfacet
  facet normal -4.33189e-17 -0.195091 0.980785
    outer loop
      vertex 12.425 -1.72306e-15 7.14
      vertex 10.415 0.669696 7.27321
      vertex 10.415 -1.27676e-15 7.14
    endloop
  endfacet
  facet normal 4.33189e-17 0.195091 0.980785
    outer loop
      vertex 10.415 -1.27676e-15 7.14
      vertex 12.425 -0.669696 7.27321
      vertex 12.425 -1.72306e-15 7.14
    endloop
  endfacet
  facet normal 0 0.195091 0.980785
    outer loop
      vertex 12.425 -0.669696 7.27321
      vertex 10.415 -1.27676e-15 7.14
      vertex 10.415 -0.669696 7.27321
    endloop
  endfacet
  facet normal 0 -0.555571 -0.831469
    outer loop
      vertex 10.415 0.669696 10.5068
      vertex 12.425 1.23744 10.1274
      vertex 12.425 0.669696 10.5068
    endloop
  endfacet
  facet normal -0 -0.555571 -0.831469
    outer loop
      vertex 12.425 1.23744 10.1274
      vertex 10.415 0.669696 10.5068
      vertex 10.415 1.23744 10.1274
    endloop
  endfacet
  facet normal 0 -0.831469 -0.555571
    outer loop
      vertex 10.415 1.61679 9.5597
      vertex 12.425 1.23744 10.1274
      vertex 10.415 1.23744 10.1274
    endloop
  endfacet
  facet normal 0 -0.831469 -0.555571
    outer loop
      vertex 12.425 1.23744 10.1274
      vertex 10.415 1.61679 9.5597
      vertex 12.425 1.61679 9.5597
    endloop
  endfacet
  facet normal 0 0.195091 -0.980785
    outer loop
      vertex 10.415 -0.669696 10.5068
      vertex 12.425 -9.45907e-16 10.64
      vertex 12.425 -0.669696 10.5068
    endloop
  endfacet
  facet normal 4.33189e-17 0.195091 -0.980785
    outer loop
      vertex 12.425 -9.45907e-16 10.64
      vertex 10.415 -0.669696 10.5068
      vertex 10.415 -4.996e-16 10.64
    endloop
  endfacet
  facet normal 0 0.555571 -0.831469
    outer loop
      vertex 10.415 -1.23744 10.1274
      vertex 12.425 -0.669696 10.5068
      vertex 12.425 -1.23744 10.1274
    endloop
  endfacet
  facet normal 0 0.555571 -0.831469
    outer loop
      vertex 12.425 -0.669696 10.5068
      vertex 10.415 -1.23744 10.1274
      vertex 10.415 -0.669696 10.5068
    endloop
  endfacet
  facet normal 0 0.980785 0.195091
    outer loop
      vertex 12.425 -1.61679 8.2203
      vertex 10.415 -1.75 8.89
      vertex 12.425 -1.75 8.89
    endloop
  endfacet
  facet normal 0 0.980785 0.195091
    outer loop
      vertex 10.415 -1.75 8.89
      vertex 12.425 -1.61679 8.2203
      vertex 10.415 -1.61679 8.2203
    endloop
  endfacet
  facet normal -0 0.555571 0.831469
    outer loop
      vertex 10.415 -0.669696 7.27321
      vertex 12.425 -1.23744 7.65256
      vertex 12.425 -0.669696 7.27321
    endloop
  endfacet
  facet normal 0 0.555571 0.831469
    outer loop
      vertex 12.425 -1.23744 7.65256
      vertex 10.415 -0.669696 7.27321
      vertex 10.415 -1.23744 7.65256
    endloop
  endfacet
  facet normal 0 0.831469 0.55557
    outer loop
      vertex 12.425 -1.23744 7.65256
      vertex 10.415 -1.61679 8.2203
      vertex 12.425 -1.61679 8.2203
    endloop
  endfacet
  facet normal 0 0.831469 0.55557
    outer loop
      vertex 10.415 -1.61679 8.2203
      vertex 12.425 -1.23744 7.65256
      vertex 10.415 -1.23744 7.65256
    endloop
  endfacet
  facet normal 0 0.831469 -0.555571
    outer loop
      vertex 12.425 -1.61679 9.5597
      vertex 10.415 -1.23744 10.1274
      vertex 12.425 -1.23744 10.1274
    endloop
  endfacet
  facet normal 0 0.831469 -0.555571
    outer loop
      vertex 10.415 -1.23744 10.1274
      vertex 12.425 -1.61679 9.5597
      vertex 10.415 -1.61679 9.5597
    endloop
  endfacet
  facet normal 0 -0.555571 0.831469
    outer loop
      vertex 10.415 1.23744 7.65256
      vertex 12.425 0.669696 7.27321
      vertex 12.425 1.23744 7.65256
    endloop
  endfacet
  facet normal 0 -0.555571 0.831469
    outer loop
      vertex 12.425 0.669696 7.27321
      vertex 10.415 1.23744 7.65256
      vertex 10.415 0.669696 7.27321
    endloop
  endfacet
  facet normal 0 -0.980785 0.195091
    outer loop
      vertex 10.415 1.61679 8.2203
      vertex 12.425 1.75 8.89
      vertex 10.415 1.75 8.89
    endloop
  endfacet
  facet normal 0 -0.980785 0.195091
    outer loop
      vertex 12.425 1.75 8.89
      vertex 10.415 1.61679 8.2203
      vertex 12.425 1.61679 8.2203
    endloop
  endfacet
  facet normal 0 -0.831469 0.55557
    outer loop
      vertex 10.415 1.23744 7.65256
      vertex 12.425 1.61679 8.2203
      vertex 10.415 1.61679 8.2203
    endloop
  endfacet
  facet normal 0 -0.831469 0.55557
    outer loop
      vertex 12.425 1.61679 8.2203
      vertex 10.415 1.23744 7.65256
      vertex 12.425 1.23744 7.65256
    endloop
  endfacet
  facet normal 0 -0.866025 -0.5
    outer loop
      vertex 8.1525 3.5 8.89
      vertex 10.415 1.75 11.9211
      vertex 8.1525 1.75 11.9211
    endloop
  endfacet
  facet normal 0 -0.866025 -0.5
    outer loop
      vertex 10.415 1.75 11.9211
      vertex 8.1525 3.5 8.89
      vertex 10.415 3.5 8.89
    endloop
  endfacet
  facet normal 0 0.866025 -0.5
    outer loop
      vertex 10.415 -3.5 8.89
      vertex 8.1525 -1.75 11.9211
      vertex 10.415 -1.75 11.9211
    endloop
  endfacet
  facet normal 0 0.866025 -0.5
    outer loop
      vertex 8.1525 -1.75 11.9211
      vertex 10.415 -3.5 8.89
      vertex 8.1525 -3.5 8.89
    endloop
  endfacet
  facet normal 0 0 0
    outer loop
      vertex 10.415 -3.5 8.89
      vertex 6.42499 -3.5 8.89
      vertex 8.1525 -3.5 8.89
    endloop
  endfacet
  facet normal 0 0 -1
    outer loop
      vertex 8.1525 -1.75 11.9211
      vertex 10.415 1.75 11.9211
      vertex 10.415 -1.75 11.9211
    endloop
  endfacet
  facet normal -0 0 -1
    outer loop
      vertex 10.415 1.75 11.9211
      vertex 8.1525 -1.75 11.9211
      vertex 8.1525 1.75 11.9211
    endloop
  endfacet
  facet normal -1 -0 0
    outer loop
      vertex 10.415 3.5 8.89
      vertex 10.415 1.61679 8.2203
      vertex 10.415 1.75 8.89
    endloop
  endfacet
  facet normal -1 0 0
    outer loop
      vertex 10.415 1.75 5.85891
      vertex 10.415 1.23744 7.65256
      vertex 10.415 1.61679 8.2203
    endloop
  endfacet
  facet normal -1 0 0
    outer loop
      vertex 10.415 1.75 5.85891
      vertex 10.415 0.669696 7.27321
      vertex 10.415 1.23744 7.65256
    endloop
  endfacet
  facet normal -1 0 0
    outer loop
      vertex 10.415 1.75 5.85891
      vertex 10.415 -1.27676e-15 7.14
      vertex 10.415 0.669696 7.27321
    endloop
  endfacet
  facet normal -1 0 0
    outer loop
      vertex 10.415 -1.75 5.85891
      vertex 10.415 -1.27676e-15 7.14
      vertex 10.415 1.75 5.85891
    endloop
  endfacet
  facet normal -1 -0 0
    outer loop
      vertex 10.415 -1.27676e-15 7.14
      vertex 10.415 -1.75 5.85891
      vertex 10.415 -0.669696 7.27321
    endloop
  endfacet
  facet normal -1 0 0
    outer loop
      vertex 10.415 -1.75 5.85891
      vertex 10.415 -1.23744 7.65256
      vertex 10.415 -0.669696 7.27321
    endloop
  endfacet
  facet normal -1 0 0
    outer loop
      vertex 10.415 -1.75 5.85891
      vertex 10.415 -1.61679 8.2203
      vertex 10.415 -1.23744 7.65256
    endloop
  endfacet
  facet normal -1 0 0
    outer loop
      vertex 10.415 -3.5 8.89
      vertex 10.415 -1.61679 8.2203
      vertex 10.415 -1.75 5.85891
    endloop
  endfacet
  facet normal -1 0 0
    outer loop
      vertex 10.415 -1.61679 8.2203
      vertex 10.415 -3.5 8.89
      vertex 10.415 -1.75 8.89
    endloop
  endfacet
  facet normal -1 0 0
    outer loop
      vertex 10.415 1.61679 8.2203
      vertex 10.415 3.5 8.89
      vertex 10.415 1.75 5.85891
    endloop
  endfacet
  facet normal -1 0 0
    outer loop
      vertex 10.415 1.61679 9.5597
      vertex 10.415 3.5 8.89
      vertex 10.415 1.75 8.89
    endloop
  endfacet
  facet normal -1 0 0
    outer loop
      vertex 10.415 3.5 8.89
      vertex 10.415 1.61679 9.5597
      vertex 10.415 1.75 11.9211
    endloop
  endfacet
  facet normal -1 0 0
    outer loop
      vertex 10.415 1.23744 10.1274
      vertex 10.415 1.75 11.9211
      vertex 10.415 1.61679 9.5597
    endloop
  endfacet
  facet normal -1 0 0
    outer loop
      vertex 10.415 0.669696 10.5068
      vertex 10.415 1.75 11.9211
      vertex 10.415 1.23744 10.1274
    endloop
  endfacet
  facet normal -1 0 0
    outer loop
      vertex 10.415 -4.996e-16 10.64
      vertex 10.415 1.75 11.9211
      vertex 10.415 0.669696 10.5068
    endloop
  endfacet
  facet normal -1 0 0
    outer loop
      vertex 10.415 -1.75 11.9211
      vertex 10.415 -4.996e-16 10.64
      vertex 10.415 -0.669696 10.5068
    endloop
  endfacet
  facet normal -1 0 0
    outer loop
      vertex 10.415 -4.996e-16 10.64
      vertex 10.415 -1.75 11.9211
      vertex 10.415 1.75 11.9211
    endloop
  endfacet
  facet normal -1 0 0
    outer loop
      vertex 10.415 -1.23744 10.1274
      vertex 10.415 -1.75 11.9211
      vertex 10.415 -0.669696 10.5068
    endloop
  endfacet
  facet normal -1 0 0
    outer loop
      vertex 10.415 -1.61679 9.5597
      vertex 10.415 -1.75 11.9211
      vertex 10.415 -1.23744 10.1274
    endloop
  endfacet
  facet normal -1 0 0
    outer loop
      vertex 10.415 -3.5 8.89
      vertex 10.415 -1.61679 9.5597
      vertex 10.415 -1.75 8.89
    endloop
  endfacet
  facet normal -1 -0 0
    outer loop
      vertex 10.415 -1.61679 9.5597
      vertex 10.415 -3.5 8.89
      vertex 10.415 -1.75 11.9211
    endloop
  endfacet
  facet normal 0 -0.866025 0.5
    outer loop
      vertex 8.1525 1.75 5.85891
      vertex 10.415 3.5 8.89
      vertex 8.1525 3.5 8.89
    endloop
  endfacet
  facet normal 0 -0.866025 0.5
    outer loop
      vertex 10.415 3.5 8.89
      vertex 8.1525 1.75 5.85891
      vertex 10.415 1.75 5.85891
    endloop
  endfacet
  facet normal -0 0 1
    outer loop
      vertex 8.1525 1.75 5.85891
      vertex 10.415 -1.75 5.85891
      vertex 10.415 1.75 5.85891
    endloop
  endfacet
  facet normal 0 0 1
    outer loop
      vertex 10.415 -1.75 5.85891
      vertex 8.1525 1.75 5.85891
      vertex 8.1525 -1.75 5.85891
    endloop
  endfacet
  facet normal 0 0.866025 0.5
    outer loop
      vertex 10.415 -1.75 5.85891
      vertex 8.1525 -3.5 8.89
      vertex 10.415 -3.5 8.89
    endloop
  endfacet
  facet normal 0 0.866025 0.5
    outer loop
      vertex 8.1525 -3.5 8.89
      vertex 10.415 -1.75 5.85891
      vertex 8.1525 -1.75 5.85891
    endloop
  endfacet
  facet normal 0 0 0
    outer loop
      vertex 8.1525 -3.5 8.89
      vertex 6.42499 -3.5 8.89
      vertex 10.415 -3.5 8.89
    endloop
  endfacet
  facet normal 0 -0.980785 -0.195091
    outer loop
      vertex 10.415 1.75 -8.89
      vertex 12.425 1.61679 -8.2203
      vertex 10.415 1.61679 -8.2203
    endloop
  endfacet
  facet normal 0 -0.980785 -0.195091
    outer loop
      vertex 12.425 1.61679 -8.2203
      vertex 10.415 1.75 -8.89
      vertex 12.425 1.75 -8.89
    endloop
  endfacet
  facet normal 0 0.980785 -0.195091
    outer loop
      vertex 12.425 -1.75 -8.89
      vertex 10.415 -1.61679 -8.2203
      vertex 12.425 -1.61679 -8.2203
    endloop
  endfacet
  facet normal 0 0.980785 -0.195091
    outer loop
      vertex 10.415 -1.61679 -8.2203
      vertex 12.425 -1.75 -8.89
      vertex 10.415 -1.75 -8.89
    endloop
  endfacet
  facet normal -4.33189e-17 -0.195091 -0.980785
    outer loop
      vertex 10.415 -4.996e-16 -7.14
      vertex 12.425 0.669696 -7.27321
      vertex 12.425 -9.45907e-16 -7.14
    endloop
  endfacet
  facet normal -0 -0.195091 -0.980785
    outer loop
      vertex 12.425 0.669696 -7.27321
      vertex 10.415 -4.996e-16 -7.14
      vertex 10.415 0.669696 -7.27321
    endloop
  endfacet
  facet normal 0 -0.195091 0.980785
    outer loop
      vertex 10.415 0.669696 -10.5068
      vertex 12.425 -1.72306e-15 -10.64
      vertex 12.425 0.669696 -10.5068
    endloop
  endfacet
  facet normal -4.33189e-17 -0.195091 0.980785
    outer loop
      vertex 12.425 -1.72306e-15 -10.64
      vertex 10.415 0.669696 -10.5068
      vertex 10.415 -1.27676e-15 -10.64
    endloop
  endfacet
  facet normal 4.33189e-17 0.195091 0.980785
    outer loop
      vertex 10.415 -1.27676e-15 -10.64
      vertex 12.425 -0.669696 -10.5068
      vertex 12.425 -1.72306e-15 -10.64
    endloop
  endfacet
  facet normal 0 0.195091 0.980785
    outer loop
      vertex 12.425 -0.669696 -10.5068
      vertex 10.415 -1.27676e-15 -10.64
      vertex 10.415 -0.669696 -10.5068
    endloop
  endfacet
  facet normal 0 -0.555571 -0.831469
    outer loop
      vertex 10.415 0.669696 -7.27321
      vertex 12.425 1.23744 -7.65256
      vertex 12.425 0.669696 -7.27321
    endloop
  endfacet
  facet normal -0 -0.555571 -0.831469
    outer loop
      vertex 12.425 1.23744 -7.65256
      vertex 10.415 0.669696 -7.27321
      vertex 10.415 1.23744 -7.65256
    endloop
  endfacet
  facet normal 0 -0.831469 -0.55557
    outer loop
      vertex 10.415 1.61679 -8.2203
      vertex 12.425 1.23744 -7.65256
      vertex 10.415 1.23744 -7.65256
    endloop
  endfacet
  facet normal 0 -0.831469 -0.55557
    outer loop
      vertex 12.425 1.23744 -7.65256
      vertex 10.415 1.61679 -8.2203
      vertex 12.425 1.61679 -8.2203
    endloop
  endfacet
  facet normal 0 0.195091 -0.980785
    outer loop
      vertex 10.415 -0.669696 -7.27321
      vertex 12.425 -9.45907e-16 -7.14
      vertex 12.425 -0.669696 -7.27321
    endloop
  endfacet
  facet normal 4.33189e-17 0.195091 -0.980785
    outer loop
      vertex 12.425 -9.45907e-16 -7.14
      vertex 10.415 -0.669696 -7.27321
      vertex 10.415 -4.996e-16 -7.14
    endloop
  endfacet
  facet normal 0 0.555571 -0.831469
    outer loop
      vertex 10.415 -1.23744 -7.65256
      vertex 12.425 -0.669696 -7.27321
      vertex 12.425 -1.23744 -7.65256
    endloop
  endfacet
  facet normal 0 0.555571 -0.831469
    outer loop
      vertex 12.425 -0.669696 -7.27321
      vertex 10.415 -1.23744 -7.65256
      vertex 10.415 -0.669696 -7.27321
    endloop
  endfacet
  facet normal 0 0.980785 0.195091
    outer loop
      vertex 12.425 -1.61679 -9.5597
      vertex 10.415 -1.75 -8.89
      vertex 12.425 -1.75 -8.89
    endloop
  endfacet
  facet normal 0 0.980785 0.195091
    outer loop
      vertex 10.415 -1.75 -8.89
      vertex 12.425 -1.61679 -9.5597
      vertex 10.415 -1.61679 -9.5597
    endloop
  endfacet
  facet normal -0 0.555571 0.831469
    outer loop
      vertex 10.415 -0.669696 -10.5068
      vertex 12.425 -1.23744 -10.1274
      vertex 12.425 -0.669696 -10.5068
    endloop
  endfacet
  facet normal 0 0.555571 0.831469
    outer loop
      vertex 12.425 -1.23744 -10.1274
      vertex 10.415 -0.669696 -10.5068
      vertex 10.415 -1.23744 -10.1274
    endloop
  endfacet
  facet normal 0 0.831469 0.555571
    outer loop
      vertex 12.425 -1.23744 -10.1274
      vertex 10.415 -1.61679 -9.5597
      vertex 12.425 -1.61679 -9.5597
    endloop
  endfacet
  facet normal 0 0.831469 0.555571
    outer loop
      vertex 10.415 -1.61679 -9.5597
      vertex 12.425 -1.23744 -10.1274
      vertex 10.415 -1.23744 -10.1274
    endloop
  endfacet
  facet normal 0 0.831469 -0.55557
    outer loop
      vertex 12.425 -1.61679 -8.2203
      vertex 10.415 -1.23744 -7.65256
      vertex 12.425 -1.23744 -7.65256
    endloop
  endfacet
  facet normal 0 0.831469 -0.55557
    outer loop
      vertex 10.415 -1.23744 -7.65256
      vertex 12.425 -1.61679 -8.2203
      vertex 10.415 -1.61679 -8.2203
    endloop
  endfacet
  facet normal 0 -0.555571 0.831469
    outer loop
      vertex 10.415 1.23744 -10.1274
      vertex 12.425 0.669696 -10.5068
      vertex 12.425 1.23744 -10.1274
    endloop
  endfacet
  facet normal 0 -0.555571 0.831469
    outer loop
      vertex 12.425 0.669696 -10.5068
      vertex 10.415 1.23744 -10.1274
      vertex 10.415 0.669696 -10.5068
    endloop
  endfacet
  facet normal 0 -0.980785 0.195091
    outer loop
      vertex 10.415 1.61679 -9.5597
      vertex 12.425 1.75 -8.89
      vertex 10.415 1.75 -8.89
    endloop
  endfacet
  facet normal 0 -0.980785 0.195091
    outer loop
      vertex 12.425 1.75 -8.89
      vertex 10.415 1.61679 -9.5597
      vertex 12.425 1.61679 -9.5597
    endloop
  endfacet
  facet normal 0 -0.831469 0.555571
    outer loop
      vertex 10.415 1.23744 -10.1274
      vertex 12.425 1.61679 -9.5597
      vertex 10.415 1.61679 -9.5597
    endloop
  endfacet
  facet normal 0 -0.831469 0.555571
    outer loop
      vertex 12.425 1.61679 -9.5597
      vertex 10.415 1.23744 -10.1274
      vertex 12.425 1.23744 -10.1274
    endloop
  endfacet
  facet normal 0 -0.866025 -0.5
    outer loop
      vertex 8.1525 3.5 -8.89
      vertex 10.415 1.75 -5.85891
      vertex 8.1525 1.75 -5.85891
    endloop
  endfacet
  facet normal 0 -0.866025 -0.5
    outer loop
      vertex 10.415 1.75 -5.85891
      vertex 8.1525 3.5 -8.89
      vertex 10.415 3.5 -8.89
    endloop
  endfacet
  facet normal 0 0.866025 -0.5
    outer loop
      vertex 10.415 -3.5 -8.89
      vertex 8.1525 -1.75 -5.85891
      vertex 10.415 -1.75 -5.85891
    endloop
  endfacet
  facet normal 0 0.866025 -0.5
    outer loop
      vertex 8.1525 -1.75 -5.85891
      vertex 10.415 -3.5 -8.89
      vertex 8.1525 -3.5 -8.89
    endloop
  endfacet
  facet normal 0 0 0
    outer loop
      vertex 10.415 -3.5 -8.89
      vertex 6.42499 -3.5 -8.89
      vertex 8.1525 -3.5 -8.89
    endloop
  endfacet
  facet normal 0 0 -1
    outer loop
      vertex 8.1525 -1.75 -5.85891
      vertex 10.415 1.75 -5.85891
      vertex 10.415 -1.75 -5.85891
    endloop
  endfacet
  facet normal -0 0 -1
    outer loop
      vertex 10.415 1.75 -5.85891
      vertex 8.1525 -1.75 -5.85891
      vertex 8.1525 1.75 -5.85891
    endloop
  endfacet
  facet normal -1 -0 0
    outer loop
      vertex 10.415 3.5 -8.89
      vertex 10.415 1.61679 -9.5597
      vertex 10.415 1.75 -8.89
    endloop
  endfacet
  facet normal -1 0 0
    outer loop
      vertex 10.415 1.75 -11.9211
      vertex 10.415 1.23744 -10.1274
      vertex 10.415 1.61679 -9.5597
    endloop
  endfacet
  facet normal -1 0 0
    outer loop
      vertex 10.415 1.75 -11.9211
      vertex 10.415 0.669696 -10.5068
      vertex 10.415 1.23744 -10.1274
    endloop
  endfacet
  facet normal -1 0 0
    outer loop
      vertex 10.415 1.75 -11.9211
      vertex 10.415 -1.27676e-15 -10.64
      vertex 10.415 0.669696 -10.5068
    endloop
  endfacet
  facet normal -1 0 0
    outer loop
      vertex 10.415 -1.75 -11.9211
      vertex 10.415 -1.27676e-15 -10.64
      vertex 10.415 1.75 -11.9211
    endloop
  endfacet
  facet normal -1 -0 0
    outer loop
      vertex 10.415 -1.27676e-15 -10.64
      vertex 10.415 -1.75 -11.9211
      vertex 10.415 -0.669696 -10.5068
    endloop
  endfacet
  facet normal -1 0 0
    outer loop
      vertex 10.415 -1.75 -11.9211
      vertex 10.415 -1.23744 -10.1274
      vertex 10.415 -0.669696 -10.5068
    endloop
  endfacet
  facet normal -1 0 0
    outer loop
      vertex 10.415 -1.75 -11.9211
      vertex 10.415 -1.61679 -9.5597
      vertex 10.415 -1.23744 -10.1274
    endloop
  endfacet
  facet normal -1 0 0
    outer loop
      vertex 10.415 -3.5 -8.89
      vertex 10.415 -1.61679 -9.5597
      vertex 10.415 -1.75 -11.9211
    endloop
  endfacet
  facet normal -1 0 0
    outer loop
      vertex 10.415 -1.61679 -9.5597
      vertex 10.415 -3.5 -8.89
      vertex 10.415 -1.75 -8.89
    endloop
  endfacet
  facet normal -1 0 0
    outer loop
      vertex 10.415 1.61679 -9.5597
      vertex 10.415 3.5 -8.89
      vertex 10.415 1.75 -11.9211
    endloop
  endfacet
  facet normal -1 0 0
    outer loop
      vertex 10.415 1.61679 -8.2203
      vertex 10.415 3.5 -8.89
      vertex 10.415 1.75 -8.89
    endloop
  endfacet
  facet normal -1 0 0
    outer loop
      vertex 10.415 3.5 -8.89
      vertex 10.415 1.61679 -8.2203
      vertex 10.415 1.75 -5.85891
    endloop
  endfacet
  facet normal -1 0 0
    outer loop
      vertex 10.415 1.23744 -7.65256
      vertex 10.415 1.75 -5.85891
      vertex 10.415 1.61679 -8.2203
    endloop
  endfacet
  facet normal -1 0 0
    outer loop
      vertex 10.415 0.669696 -7.27321
      vertex 10.415 1.75 -5.85891
      vertex 10.415 1.23744 -7.65256
    endloop
  endfacet
  facet normal -1 0 0
    outer loop
      vertex 10.415 -4.996e-16 -7.14
      vertex 10.415 1.75 -5.85891
      vertex 10.415 0.669696 -7.27321
    endloop
  endfacet
  facet normal -1 0 0
    outer loop
      vertex 10.415 -1.75 -5.85891
      vertex 10.415 -4.996e-16 -7.14
      vertex 10.415 -0.669696 -7.27321
    endloop
  endfacet
  facet normal -1 0 0
    outer loop
      vertex 10.415 -4.996e-16 -7.14
      vertex 10.415 -1.75 -5.85891
      vertex 10.415 1.75 -5.85891
    endloop
  endfacet
  facet normal -1 0 0
    outer loop
      vertex 10.415 -1.23744 -7.65256
      vertex 10.415 -1.75 -5.85891
      vertex 10.415 -0.669696 -7.27321
    endloop
  endfacet
  facet normal -1 0 0
    outer loop
      vertex 10.415 -1.61679 -8.2203
      vertex 10.415 -1.75 -5.85891
      vertex 10.415 -1.23744 -7.65256
    endloop
  endfacet
  facet normal -1 0 0
    outer loop
      vertex 10.415 -3.5 -8.89
      vertex 10.415 -1.61679 -8.2203
      vertex 10.415 -1.75 -8.89
    endloop
  endfacet
  facet normal -1 -0 0
    outer loop
      vertex 10.415 -1.61679 -8.2203
      vertex 10.415 -3.5 -8.89
      vertex 10.415 -1.75 -5.85891
    endloop
  endfacet
  facet normal 0 -0.866025 0.5
    outer loop
      vertex 8.1525 1.75 -11.9211
      vertex 10.415 3.5 -8.89
      vertex 8.1525 3.5 -8.89
    endloop
  endfacet
  facet normal 0 -0.866025 0.5
    outer loop
      vertex 10.415 3.5 -8.89
      vertex 8.1525 1.75 -11.9211
      vertex 10.415 1.75 -11.9211
    endloop
  endfacet
  facet normal -0 0 1
    outer loop
      vertex 8.1525 1.75 -11.9211
      vertex 10.415 -1.75 -11.9211
      vertex 10.415 1.75 -11.9211
    endloop
  endfacet
  facet normal 0 0 1
    outer loop
      vertex 10.415 -1.75 -11.9211
      vertex 8.1525 1.75 -11.9211
      vertex 8.1525 -1.75 -11.9211
    endloop
  endfacet
  facet normal 0 0.866025 0.5
    outer loop
      vertex 10.415 -1.75 -11.9211
      vertex 8.1525 -3.5 -8.89
      vertex 10.415 -3.5 -8.89
    endloop
  endfacet
  facet normal 0 0.866025 0.5
    outer loop
      vertex 8.1525 -3.5 -8.89
      vertex 10.415 -1.75 -11.9211
      vertex 8.1525 -1.75 -11.9211
    endloop
  endfacet
  facet normal 0 0 0
    outer loop
      vertex 10.415 -3.5 -8.89
      vertex 8.1525 -3.5 -8.89
      vertex 6.42499 -3.5 -8.89
    endloop
  endfacet
  facet normal 0 0 -1
    outer loop
      vertex 12.425 -3.52 16.7437
      vertex 8.1525 3.48 16.7437
      vertex 12.425 3.48 16.7437
    endloop
  endfacet
  facet normal 0 0 -1
    outer loop
      vertex 6.425 -3.5 16.7437
      vertex 12.425 -3.52 16.7437
      vertex 6.425 -3.52 16.7437
    endloop
  endfacet
  facet normal 0 0 -1
    outer loop
      vertex 12.425 -3.52 16.7437
      vertex 6.425 -3.5 16.7437
      vertex 8.1525 3.48 16.7437
    endloop
  endfacet
  facet normal 0 0 -1
    outer loop
      vertex 6.42499 3.5 16.7437
      vertex 8.1525 3.48 16.7437
      vertex 6.425 -3.5 16.7437
    endloop
  endfacet
  facet normal 0 0 -1
    outer loop
      vertex 6.42499 3.5 16.7437
      vertex 6.425 -3.5 16.7437
      vertex 6.42499 -3.5 16.7437
    endloop
  endfacet
  facet normal 0 0 -1
    outer loop
      vertex 8.1525 3.48 16.7437
      vertex 6.42499 3.5 16.7437
      vertex 8.1525 3.5 16.7437
    endloop
  endfacet
  facet normal -1 0 0
    outer loop
      vertex 8.1525 3.48 -15.0062
      vertex 8.1525 3.5 -16.7437
      vertex 8.1525 3.48 -16.7437
    endloop
  endfacet
  facet normal -1 0 0
    outer loop
      vertex 8.1525 3.5 -16.7437
      vertex 8.1525 3.48 -15.0062
      vertex 8.1525 3.5 -8.89
    endloop
  endfacet
  facet normal -1 0 0
    outer loop
      vertex 8.1525 3.48 -15.0062
      vertex 8.1525 1.75 -11.9211
      vertex 8.1525 3.5 -8.89
    endloop
  endfacet
  facet normal -1 0 0
    outer loop
      vertex 8.1525 3.48 -15.0062
      vertex 8.1525 -1.75 -11.9211
      vertex 8.1525 1.75 -11.9211
    endloop
  endfacet
  facet normal -1 0 0
    outer loop
      vertex 8.1525 -3.5 -15.0062
      vertex 8.1525 -1.75 -11.9211
      vertex 8.1525 3.48 -15.0062
    endloop
  endfacet
  facet normal -1 -0 0
    outer loop
      vertex 8.1525 -1.75 -11.9211
      vertex 8.1525 -3.5 -15.0062
      vertex 8.1525 -3.5 -8.89
    endloop
  endfacet
  facet normal -1 0 0
    outer loop
      vertex 8.1525 1.75 -5.85891
      vertex 8.1525 3.5 8.89
      vertex 8.1525 3.5 -8.89
    endloop
  endfacet
  facet normal -1 0 0
    outer loop
      vertex 8.1525 1.75 -5.85891
      vertex 8.1525 1.75 5.85891
      vertex 8.1525 3.5 8.89
    endloop
  endfacet
  facet normal -1 0 0
    outer loop
      vertex 8.1525 -1.75 -5.85891
      vertex 8.1525 1.75 5.85891
      vertex 8.1525 1.75 -5.85891
    endloop
  endfacet
  facet normal -1 0 0
    outer loop
      vertex 8.1525 -1.75 -5.85891
      vertex 8.1525 -1.75 5.85891
      vertex 8.1525 1.75 5.85891
    endloop
  endfacet
  facet normal -1 0 0
    outer loop
      vertex 8.1525 -3.5 -8.89
      vertex 8.1525 -1.75 5.85891
      vertex 8.1525 -1.75 -5.85891
    endloop
  endfacet
  facet normal -1 -0 0
    outer loop
      vertex 8.1525 -1.75 5.85891
      vertex 8.1525 -3.5 -8.89
      vertex 8.1525 -3.5 8.89
    endloop
  endfacet
  facet normal -1 0 0
    outer loop
      vertex 8.1525 3.5 8.89
      vertex 8.1525 3.48 15.0062
      vertex 8.1525 3.5 16.7437
    endloop
  endfacet
  facet normal -1 0 0
    outer loop
      vertex 8.1525 1.75 11.9211
      vertex 8.1525 3.48 15.0062
      vertex 8.1525 3.5 8.89
    endloop
  endfacet
  facet normal -1 0 0
    outer loop
      vertex 8.1525 -1.75 11.9211
      vertex 8.1525 3.48 15.0062
      vertex 8.1525 1.75 11.9211
    endloop
  endfacet
  facet normal -1 0 0
    outer loop
      vertex 8.1525 -1.75 11.9211
      vertex 8.1525 -3.5 15.0062
      vertex 8.1525 3.48 15.0062
    endloop
  endfacet
  facet normal -1 0 0
    outer loop
      vertex 8.1525 -3.5 15.0062
      vertex 8.1525 -1.75 11.9211
      vertex 8.1525 -3.5 8.89
    endloop
  endfacet
  facet normal -1 -0 0
    outer loop
      vertex 8.1525 3.5 16.7437
      vertex 8.1525 3.48 15.0062
      vertex 8.1525 3.48 16.7437
    endloop
  endfacet
  facet normal 0 0 0
    outer loop
      vertex 8.1525 3.5 8.89
      vertex 8.1525 3.5 16.7437
      vertex 8.1525 3.5 -16.7437
    endloop
  endfacet
  facet normal 0 0 0
    outer loop
      vertex 8.1525 3.5 8.89
      vertex 8.1525 3.5 -16.7437
      vertex 8.1525 3.5 -8.89
    endloop
  endfacet
  facet normal 0 -1 0
    outer loop
      vertex 6.42499 3.5 -16.7437
      vertex 8.1525 3.5 16.7437
      vertex 6.42499 3.5 16.7437
    endloop
  endfacet
  facet normal 0 -1 -0
    outer loop
      vertex 8.1525 3.5 16.7437
      vertex 6.42499 3.5 -16.7437
      vertex 8.1525 3.5 -16.7437
    endloop
  endfacet
  facet normal -0 0 1
    outer loop
      vertex 6.42499 3.5 -16.7437
      vertex 8.1525 3.48 -16.7437
      vertex 8.1525 3.5 -16.7437
    endloop
  endfacet
  facet normal 0 0 1
    outer loop
      vertex 8.1525 3.48 -16.7437
      vertex 6.42499 3.5 -16.7437
      vertex 6.425 -3.5 -16.7437
    endloop
  endfacet
  facet normal 0 0 1
    outer loop
      vertex 6.425 -3.5 -16.7437
      vertex 6.42499 3.5 -16.7437
      vertex 6.42499 -3.5 -16.7437
    endloop
  endfacet
  facet normal -0 0 1
    outer loop
      vertex 8.1525 3.48 -16.7437
      vertex 12.425 -3.52 -16.7437
      vertex 12.425 3.48 -16.7437
    endloop
  endfacet
  facet normal -0 0 1
    outer loop
      vertex 6.425 -3.5 -16.7437
      vertex 12.425 -3.52 -16.7437
      vertex 8.1525 3.48 -16.7437
    endloop
  endfacet
  facet normal 0 0 1
    outer loop
      vertex 12.425 -3.52 -16.7437
      vertex 6.425 -3.5 -16.7437
      vertex 6.425 -3.52 -16.7437
    endloop
  endfacet
  facet normal 0 1 0
    outer loop
      vertex 8.1525 -3.5 15.0062
      vertex 8.1525 -3.5 8.89
      vertex 6.425 -3.5 15.0062
    endloop
  endfacet
  facet normal 0 1 -0
    outer loop
      vertex 6.425 -3.5 15.0062
      vertex 6.42499 -3.5 16.7437
      vertex 6.425 -3.5 16.7437
    endloop
  endfacet
  facet normal 0 1 0
    outer loop
      vertex 6.425 -3.5 15.0062
      vertex 6.42499 -3.5 8.89
      vertex 6.42499 -3.5 16.7437
    endloop
  endfacet
  facet normal 0 1 0
    outer loop
      vertex 6.42499 -3.5 8.89
      vertex 6.425 -3.5 15.0062
      vertex 8.1525 -3.5 8.89
    endloop
  endfacet
  facet normal 0 1 -0
    outer loop
      vertex 8.1525 -3.5 -15.0062
      vertex 6.42499 -3.5 -8.89
      vertex 8.1525 -3.5 -8.89
    endloop
  endfacet
  facet normal 0 1 -0
    outer loop
      vertex 6.425 -3.5 -15.0062
      vertex 6.42499 -3.5 -8.89
      vertex 8.1525 -3.5 -15.0062
    endloop
  endfacet
  facet normal 0 1 0
    outer loop
      vertex 6.42499 -3.5 -16.7437
      vertex 6.425 -3.5 -15.0062
      vertex 6.425 -3.5 -16.7437
    endloop
  endfacet
  facet normal 0 1 0
    outer loop
      vertex 6.425 -3.5 -15.0062
      vertex 6.42499 -3.5 -16.7437
      vertex 6.42499 -3.5 -8.89
    endloop
  endfacet
  facet normal 0 1 -0
    outer loop
      vertex 8.1525 -3.5 -8.89
      vertex 6.42499 -3.5 8.89
      vertex 8.1525 -3.5 8.89
    endloop
  endfacet
  facet normal 0 1 0
    outer loop
      vertex 6.42499 -3.5 8.89
      vertex 8.1525 -3.5 -8.89
      vertex 6.42499 -3.5 -8.89
    endloop
  endfacet
  facet normal 1 -0 0
    outer loop
      vertex 6.425 -3.52 16.7437
      vertex 6.425 -3.5 15.0062
      vertex 6.425 -3.5 16.7437
    endloop
  endfacet
  facet normal 1 0 0
    outer loop
      vertex 6.425 -3.5 15.0062
      vertex 6.425 -3.52 16.7437
      vertex 6.425 -3.52 15.0062
    endloop
  endfacet
  facet normal 0 -1 0
    outer loop
      vertex 8.1525 3.48 15.0062
      vertex 12.425 3.48 16.7437
      vertex 8.1525 3.48 16.7437
    endloop
  endfacet
  facet normal 0 -1 -0
    outer loop
      vertex 12.425 3.48 16.7437
      vertex 8.1525 3.48 15.0062
      vertex 12.425 3.48 15.0062
    endloop
  endfacet
  facet normal -0 0 1
    outer loop
      vertex 8.1525 3.48 15.0062
      vertex 12.425 -3.52 15.0062
      vertex 12.425 3.48 15.0062
    endloop
  endfacet
  facet normal -0 0 1
    outer loop
      vertex 8.1525 -3.5 15.0062
      vertex 12.425 -3.52 15.0062
      vertex 8.1525 3.48 15.0062
    endloop
  endfacet
  facet normal 0 0 1
    outer loop
      vertex 6.425 -3.52 15.0062
      vertex 8.1525 -3.5 15.0062
      vertex 6.425 -3.5 15.0062
    endloop
  endfacet
  facet normal 0 0 1
    outer loop
      vertex 8.1525 -3.5 15.0062
      vertex 6.425 -3.52 15.0062
      vertex 12.425 -3.52 15.0062
    endloop
  endfacet
  facet normal 0 1 -0
    outer loop
      vertex 12.425 -3.52 15.0062
      vertex 6.425 -3.52 16.7437
      vertex 12.425 -3.52 16.7437
    endloop
  endfacet
  facet normal 0 1 0
    outer loop
      vertex 6.425 -3.52 16.7437
      vertex 12.425 -3.52 15.0062
      vertex 6.425 -3.52 15.0062
    endloop
  endfacet
  facet normal 1 -0 0
    outer loop
      vertex 6.425 -3.52 -15.0062
      vertex 6.425 -3.5 -16.7437
      vertex 6.425 -3.5 -15.0062
    endloop
  endfacet
  facet normal 1 0 0
    outer loop
      vertex 6.425 -3.5 -16.7437
      vertex 6.425 -3.52 -15.0062
      vertex 6.425 -3.52 -16.7437
    endloop
  endfacet
  facet normal 0 0 -1
    outer loop
      vertex 12.425 -3.52 -15.0062
      vertex 8.1525 -3.5 -15.0062
      vertex 12.425 3.48 -15.0062
    endloop
  endfacet
  facet normal 0 0 -1
    outer loop
      vertex 6.425 -3.52 -15.0062
      vertex 8.1525 -3.5 -15.0062
      vertex 12.425 -3.52 -15.0062
    endloop
  endfacet
  facet normal -0 0 -1
    outer loop
      vertex 8.1525 -3.5 -15.0062
      vertex 6.425 -3.52 -15.0062
      vertex 6.425 -3.5 -15.0062
    endloop
  endfacet
  facet normal -0 0 -1
    outer loop
      vertex 12.425 3.48 -15.0062
      vertex 8.1525 -3.5 -15.0062
      vertex 8.1525 3.48 -15.0062
    endloop
  endfacet
  facet normal 0 -1 0
    outer loop
      vertex 8.1525 3.48 -16.7437
      vertex 12.425 3.48 -15.0062
      vertex 8.1525 3.48 -15.0062
    endloop
  endfacet
  facet normal 0 -1 -0
    outer loop
      vertex 12.425 3.48 -15.0062
      vertex 8.1525 3.48 -16.7437
      vertex 12.425 3.48 -16.7437
    endloop
  endfacet
  facet normal 0 1 -0
    outer loop
      vertex 12.425 -3.52 -16.7437
      vertex 6.425 -3.52 -15.0062
      vertex 12.425 -3.52 -15.0062
    endloop
  endfacet
  facet normal 0 1 0
    outer loop
      vertex 6.425 -3.52 -15.0062
      vertex 12.425 -3.52 -16.7437
      vertex 6.425 -3.52 -16.7437
    endloop
  endfacet
  facet normal 0 0 -1
    outer loop
      vertex -6.42499 7.94899 -19.05
      vertex -14.925 5.075 -19.05
      vertex -14.8981 7.14999 -19.05
    endloop
  endfacet
  facet normal 0 0 -1
    outer loop
      vertex -25.075 5.075 -19.05
      vertex -14.8981 7.14999 -19.05
      vertex -14.925 5.075 -19.05
    endloop
  endfacet
  facet normal 0 0 -1
    outer loop
      vertex -25.075 5.075 -19.05
      vertex -25.15 7.14999 -19.05
      vertex -14.8981 7.14999 -19.05
    endloop
  endfacet
  facet normal -0 0 -1
    outer loop
      vertex -25.075 -5.075 -19.05
      vertex -27.15 -5.14999 -19.05
      vertex -25.075 5.075 -19.05
    endloop
  endfacet
  facet normal 0 0 -1
    outer loop
      vertex -27.15 -5.14999 -19.05
      vertex -25.15 -7.14999 -19.05
      vertex -25.9154 -6.99776 -19.05
    endloop
  endfacet
  facet normal 0 0 -1
    outer loop
      vertex -27.15 5.14999 -19.05
      vertex -25.075 5.075 -19.05
      vertex -27.15 -5.14999 -19.05
    endloop
  endfacet
  facet normal 0 0 -1
    outer loop
      vertex -27.15 -5.14999 -19.05
      vertex -25.9154 -6.99776 -19.05
      vertex -26.5642 -6.56421 -19.05
    endloop
  endfacet
  facet normal 0 -0 -1
    outer loop
      vertex -26.9978 5.91536 -19.05
      vertex -25.075 5.075 -19.05
      vertex -27.15 5.14999 -19.05
    endloop
  endfacet
  facet normal 0 0 -1
    outer loop
      vertex -27.15 -5.14999 -19.05
      vertex -26.5642 -6.56421 -19.05
      vertex -26.9978 -5.91536 -19.05
    endloop
  endfacet
  facet normal 0 0 -1
    outer loop
      vertex -25.075 5.075 -19.05
      vertex -25.9154 6.99776 -19.05
      vertex -25.15 7.14999 -19.05
    endloop
  endfacet
  facet normal 0 0 -1
    outer loop
      vertex -25.075 5.075 -19.05
      vertex -26.5642 6.56421 -19.05
      vertex -25.9154 6.99776 -19.05
    endloop
  endfacet
  facet normal 0 0 -1
    outer loop
      vertex -25.075 5.075 -19.05
      vertex -26.9978 5.91536 -19.05
      vertex -26.5642 6.56421 -19.05
    endloop
  endfacet
  facet normal 0 0 -1
    outer loop
      vertex 10.425 -9.94899 -19.05
      vertex 12.425 -7.94899 -19.05
      vertex 12.2728 -8.71436 -19.05
    endloop
  endfacet
  facet normal 0 0 -1
    outer loop
      vertex 12.425 -7.94899 -19.05
      vertex 6.42499 -7.94899 -19.05
      vertex 12.425 7.94899 -19.05
    endloop
  endfacet
  facet normal 0 0 -1
    outer loop
      vertex 10.425 -9.94899 -19.05
      vertex 12.2728 -8.71436 -19.05
      vertex 11.8392 -9.3632 -19.05
    endloop
  endfacet
  facet normal 0 0 -1
    outer loop
      vertex 6.42499 7.94899 -19.05
      vertex 12.425 7.94899 -19.05
      vertex 6.42499 -7.94899 -19.05
    endloop
  endfacet
  facet normal 0 0 -1
    outer loop
      vertex 10.425 -9.94899 -19.05
      vertex 11.8392 -9.3632 -19.05
      vertex 11.1904 -9.79675 -19.05
    endloop
  endfacet
  facet normal 0 -0 -1
    outer loop
      vertex 10.425 9.94899 -19.05
      vertex 12.425 7.94899 -19.05
      vertex 6.42499 7.94899 -19.05
    endloop
  endfacet
  facet normal -0 0 -1
    outer loop
      vertex 12.425 -7.94899 -19.05
      vertex 10.425 -9.94899 -19.05
      vertex 6.42499 -7.94899 -19.05
    endloop
  endfacet
  facet normal 0 0 -1
    outer loop
      vertex 12.425 7.94899 -19.05
      vertex 10.425 9.94899 -19.05
      vertex 12.2728 8.71436 -19.05
    endloop
  endfacet
  facet normal 0 0 -1
    outer loop
      vertex 12.2728 8.71436 -19.05
      vertex 10.425 9.94899 -19.05
      vertex 11.8392 9.3632 -19.05
    endloop
  endfacet
  facet normal 0 0 -1
    outer loop
      vertex -6.42499 -9.94899 -19.05
      vertex 6.42499 -7.94899 -19.05
      vertex 10.425 -9.94899 -19.05
    endloop
  endfacet
  facet normal 0 0 -1
    outer loop
      vertex -6.42499 -9.94899 -19.05
      vertex -6.42499 -7.94899 -19.05
      vertex 6.42499 -7.94899 -19.05
    endloop
  endfacet
  facet normal 0 0 -1
    outer loop
      vertex -7.07541 -9.84027 -19.05
      vertex -6.42499 -7.94899 -19.05
      vertex -6.42499 -9.94899 -19.05
    endloop
  endfacet
  facet normal 0 0 -1
    outer loop
      vertex -6.42499 -7.94899 -19.05
      vertex -9.668 0 -19.05
      vertex -6.42499 7.94899 -19.05
    endloop
  endfacet
  facet normal 0 0 -1
    outer loop
      vertex -14.8981 -7.14999 -19.05
      vertex -6.42499 -7.94899 -19.05
      vertex -7.07541 -9.84027 -19.05
    endloop
  endfacet
  facet normal 0 0 -1
    outer loop
      vertex -9.74411 0.382675 -19.05
      vertex -6.42499 7.94899 -19.05
      vertex -9.668 0 -19.05
    endloop
  endfacet
  facet normal 0 0 -1
    outer loop
      vertex -9.96089 0.707092 -19.05
      vertex -6.42499 7.94899 -19.05
      vertex -9.74411 0.382675 -19.05
    endloop
  endfacet
  facet normal 0 0 -1
    outer loop
      vertex -6.42499 -7.94899 -19.05
      vertex -9.74411 -0.382675 -19.05
      vertex -9.668 0 -19.05
    endloop
  endfacet
  facet normal 0 0 -1
    outer loop
      vertex -6.42499 -7.94899 -19.05
      vertex -9.96089 -0.707092 -19.05
      vertex -9.74411 -0.382675 -19.05
    endloop
  endfacet
  facet normal 0 0 -1
    outer loop
      vertex -6.42499 -7.94899 -19.05
      vertex -10.2853 -0.923874 -19.05
      vertex -9.96089 -0.707092 -19.05
    endloop
  endfacet
  facet normal 0 0 -1
    outer loop
      vertex -6.42499 -7.94899 -19.05
      vertex -10.668 -1 -19.05
      vertex -10.2853 -0.923874 -19.05
    endloop
  endfacet
  facet normal 0 0 -1
    outer loop
      vertex -6.42499 -7.94899 -19.05
      vertex -14.925 -5.075 -19.05
      vertex -10.668 -1 -19.05
    endloop
  endfacet
  facet normal -0 0 -1
    outer loop
      vertex -10.668 -1 -19.05
      vertex -14.925 -5.075 -19.05
      vertex -11.0507 -0.923874 -19.05
    endloop
  endfacet
  facet normal -0 0 -1
    outer loop
      vertex -11.0507 -0.923874 -19.05
      vertex -14.925 -5.075 -19.05
      vertex -11.3751 -0.707092 -19.05
    endloop
  endfacet
  facet normal -0 0 -1
    outer loop
      vertex -11.3751 -0.707092 -19.05
      vertex -14.925 -5.075 -19.05
      vertex -11.5919 -0.382675 -19.05
    endloop
  endfacet
  facet normal 0 0 -1
    outer loop
      vertex -6.42499 -7.94899 -19.05
      vertex -14.8981 -7.14999 -19.05
      vertex -14.925 -5.075 -19.05
    endloop
  endfacet
  facet normal 0 0 -1
    outer loop
      vertex 11.8392 9.3632 -19.05
      vertex 10.425 9.94899 -19.05
      vertex 11.1904 9.79675 -19.05
    endloop
  endfacet
  facet normal 0 0 -1
    outer loop
      vertex -6.42499 9.94899 -19.05
      vertex 6.42499 7.94899 -19.05
      vertex -6.42499 7.94899 -19.05
    endloop
  endfacet
  facet normal 0 0 -1
    outer loop
      vertex 6.42499 7.94899 -19.05
      vertex -6.42499 9.94899 -19.05
      vertex 10.425 9.94899 -19.05
    endloop
  endfacet
  facet normal 0 0 -1
    outer loop
      vertex -10.2853 0.923874 -19.05
      vertex -6.42499 7.94899 -19.05
      vertex -9.96089 0.707092 -19.05
    endloop
  endfacet
  facet normal 0 0 -1
    outer loop
      vertex -6.42499 7.94899 -19.05
      vertex -7.07541 9.84027 -19.05
      vertex -6.42499 9.94899 -19.05
    endloop
  endfacet
  facet normal 0 0 -1
    outer loop
      vertex -10.668 1 -19.05
      vertex -6.42499 7.94899 -19.05
      vertex -10.2853 0.923874 -19.05
    endloop
  endfacet
  facet normal 0 0 -1
    outer loop
      vertex -14.925 5.075 -19.05
      vertex -6.42499 7.94899 -19.05
      vertex -10.668 1 -19.05
    endloop
  endfacet
  facet normal 0 0 -1
    outer loop
      vertex -14.925 5.075 -19.05
      vertex -10.668 1 -19.05
      vertex -11.0507 0.923874 -19.05
    endloop
  endfacet
  facet normal 0 0 -1
    outer loop
      vertex -14.925 5.075 -19.05
      vertex -11.0507 0.923874 -19.05
      vertex -11.3751 0.707092 -19.05
    endloop
  endfacet
  facet normal 0 0 -1
    outer loop
      vertex -14.925 5.075 -19.05
      vertex -11.3751 0.707092 -19.05
      vertex -11.5919 0.382675 -19.05
    endloop
  endfacet
  facet normal -0 0 -1
    outer loop
      vertex -11.5919 -0.382675 -19.05
      vertex -14.925 -5.075 -19.05
      vertex -11.668 0 -19.05
    endloop
  endfacet
  facet normal -0 0 -1
    outer loop
      vertex -6.42499 7.94899 -19.05
      vertex -14.8981 7.14999 -19.05
      vertex -7.07541 9.84027 -19.05
    endloop
  endfacet
  facet normal 0 0 -1
    outer loop
      vertex -14.925 5.075 -19.05
      vertex -11.668 0 -19.05
      vertex -14.925 -5.075 -19.05
    endloop
  endfacet
  facet normal 0 0 -1
    outer loop
      vertex -14.925 5.075 -19.05
      vertex -11.5919 0.382675 -19.05
      vertex -11.668 0 -19.05
    endloop
  endfacet
  facet normal 0 0 -1
    outer loop
      vertex -14.8981 -7.14999 -19.05
      vertex -25.075 -5.075 -19.05
      vertex -14.925 -5.075 -19.05
    endloop
  endfacet
  facet normal 0 0 -1
    outer loop
      vertex -27.15 -5.14999 -19.05
      vertex -25.075 -5.075 -19.05
      vertex -25.15 -7.14999 -19.05
    endloop
  endfacet
  facet normal 0 0 -1
    outer loop
      vertex -25.15 -7.14999 -19.05
      vertex -25.075 -5.075 -19.05
      vertex -14.8981 -7.14999 -19.05
    endloop
  endfacet
  facet normal 0 0 1
    outer loop
      vertex -6.42499 -7.94899 19.05
      vertex -14.925 -5.075 19.05
      vertex -14.8981 -7.14999 19.05
    endloop
  endfacet
  facet normal -0 0 1
    outer loop
      vertex -25.075 -5.075 19.05
      vertex -14.8981 -7.14999 19.05
      vertex -14.925 -5.075 19.05
    endloop
  endfacet
  facet normal 0 0 1
    outer loop
      vertex -25.075 -5.075 19.05
      vertex -25.15 -7.14999 19.05
      vertex -14.8981 -7.14999 19.05
    endloop
  endfacet
  facet normal 0 0 1
    outer loop
      vertex -25.075 5.075 19.05
      vertex -27.15 5.14999 19.05
      vertex -25.075 -5.075 19.05
    endloop
  endfacet
  facet normal 0 0 1
    outer loop
      vertex -27.15 5.14999 19.05
      vertex -25.15 7.14999 19.05
      vertex -25.9154 6.99776 19.05
    endloop
  endfacet
  facet normal 0 0 1
    outer loop
      vertex -27.15 -5.14999 19.05
      vertex -25.075 -5.075 19.05
      vertex -27.15 5.14999 19.05
    endloop
  endfacet
  facet normal 0 0 1
    outer loop
      vertex -27.15 5.14999 19.05
      vertex -25.9154 6.99776 19.05
      vertex -26.5642 6.56421 19.05
    endloop
  endfacet
  facet normal 0 -0 1
    outer loop
      vertex -26.9978 -5.91536 19.05
      vertex -25.075 -5.075 19.05
      vertex -27.15 -5.14999 19.05
    endloop
  endfacet
  facet normal 0 0 1
    outer loop
      vertex -27.15 5.14999 19.05
      vertex -26.5642 6.56421 19.05
      vertex -26.9978 5.91536 19.05
    endloop
  endfacet
  facet normal 0 0 1
    outer loop
      vertex -25.075 -5.075 19.05
      vertex -25.9154 -6.99776 19.05
      vertex -25.15 -7.14999 19.05
    endloop
  endfacet
  facet normal 0 0 1
    outer loop
      vertex -25.075 -5.075 19.05
      vertex -26.5642 -6.56421 19.05
      vertex -25.9154 -6.99776 19.05
    endloop
  endfacet
  facet normal 0 0 1
    outer loop
      vertex -25.075 -5.075 19.05
      vertex -26.9978 -5.91536 19.05
      vertex -26.5642 -6.56421 19.05
    endloop
  endfacet
  facet normal 0 0 1
    outer loop
      vertex 10.425 9.94899 19.05
      vertex 12.425 7.94899 19.05
      vertex 12.2728 8.71436 19.05
    endloop
  endfacet
  facet normal 0 0 1
    outer loop
      vertex 12.425 7.94899 19.05
      vertex 6.42499 7.94899 19.05
      vertex 12.425 -7.94899 19.05
    endloop
  endfacet
  facet normal 0 0 1
    outer loop
      vertex 10.425 9.94899 19.05
      vertex 12.2728 8.71436 19.05
      vertex 11.8392 9.3632 19.05
    endloop
  endfacet
  facet normal 0 0 1
    outer loop
      vertex 6.42499 -7.94899 19.05
      vertex 12.425 -7.94899 19.05
      vertex 6.42499 7.94899 19.05
    endloop
  endfacet
  facet normal 0 0 1
    outer loop
      vertex 10.425 9.94899 19.05
      vertex 11.8392 9.3632 19.05
      vertex 11.1904 9.79675 19.05
    endloop
  endfacet
  facet normal 0 -0 1
    outer loop
      vertex 10.425 -9.94899 19.05
      vertex 12.425 -7.94899 19.05
      vertex 6.42499 -7.94899 19.05
    endloop
  endfacet
  facet normal 0 0 1
    outer loop
      vertex 12.425 7.94899 19.05
      vertex 10.425 9.94899 19.05
      vertex 6.42499 7.94899 19.05
    endloop
  endfacet
  facet normal 0 0 1
    outer loop
      vertex 12.425 -7.94899 19.05
      vertex 10.425 -9.94899 19.05
      vertex 12.2728 -8.71436 19.05
    endloop
  endfacet
  facet normal 0 0 1
    outer loop
      vertex 12.2728 -8.71436 19.05
      vertex 10.425 -9.94899 19.05
      vertex 11.8392 -9.3632 19.05
    endloop
  endfacet
  facet normal -0 0 1
    outer loop
      vertex -6.42499 9.94899 19.05
      vertex 6.42499 7.94899 19.05
      vertex 10.425 9.94899 19.05
    endloop
  endfacet
  facet normal 0 0 1
    outer loop
      vertex -6.42499 9.94899 19.05
      vertex -6.42499 7.94899 19.05
      vertex 6.42499 7.94899 19.05
    endloop
  endfacet
  facet normal -0 0 1
    outer loop
      vertex -7.07541 9.84027 19.05
      vertex -6.42499 7.94899 19.05
      vertex -6.42499 9.94899 19.05
    endloop
  endfacet
  facet normal 0 0 1
    outer loop
      vertex -6.42499 7.94899 19.05
      vertex -9.668 0 19.05
      vertex -6.42499 -7.94899 19.05
    endloop
  endfacet
  facet normal 0 0 1
    outer loop
      vertex -14.8981 7.14999 19.05
      vertex -6.42499 7.94899 19.05
      vertex -7.07541 9.84027 19.05
    endloop
  endfacet
  facet normal -0 0 1
    outer loop
      vertex -9.74411 -0.382675 19.05
      vertex -6.42499 -7.94899 19.05
      vertex -9.668 0 19.05
    endloop
  endfacet
  facet normal -0 0 1
    outer loop
      vertex -9.96089 -0.707092 19.05
      vertex -6.42499 -7.94899 19.05
      vertex -9.74411 -0.382675 19.05
    endloop
  endfacet
  facet normal 0 0 1
    outer loop
      vertex -6.42499 7.94899 19.05
      vertex -9.74411 0.382675 19.05
      vertex -9.668 0 19.05
    endloop
  endfacet
  facet normal 0 0 1
    outer loop
      vertex -6.42499 7.94899 19.05
      vertex -9.96089 0.707092 19.05
      vertex -9.74411 0.382675 19.05
    endloop
  endfacet
  facet normal 0 0 1
    outer loop
      vertex -6.42499 7.94899 19.05
      vertex -10.2853 0.923874 19.05
      vertex -9.96089 0.707092 19.05
    endloop
  endfacet
  facet normal 0 0 1
    outer loop
      vertex -6.42499 7.94899 19.05
      vertex -10.668 1 19.05
      vertex -10.2853 0.923874 19.05
    endloop
  endfacet
  facet normal 0 0 1
    outer loop
      vertex -6.42499 7.94899 19.05
      vertex -14.925 5.075 19.05
      vertex -10.668 1 19.05
    endloop
  endfacet
  facet normal 0 0 1
    outer loop
      vertex -10.668 1 19.05
      vertex -14.925 5.075 19.05
      vertex -11.0507 0.923874 19.05
    endloop
  endfacet
  facet normal 0 0 1
    outer loop
      vertex -11.0507 0.923874 19.05
      vertex -14.925 5.075 19.05
      vertex -11.3751 0.707092 19.05
    endloop
  endfacet
  facet normal 0 0 1
    outer loop
      vertex -11.3751 0.707092 19.05
      vertex -14.925 5.075 19.05
      vertex -11.5919 0.382675 19.05
    endloop
  endfacet
  facet normal 0 0 1
    outer loop
      vertex -6.42499 7.94899 19.05
      vertex -14.8981 7.14999 19.05
      vertex -14.925 5.075 19.05
    endloop
  endfacet
  facet normal 0 0 1
    outer loop
      vertex 11.8392 -9.3632 19.05
      vertex 10.425 -9.94899 19.05
      vertex 11.1904 -9.79675 19.05
    endloop
  endfacet
  facet normal 0 0 1
    outer loop
      vertex -6.42499 -9.94899 19.05
      vertex 6.42499 -7.94899 19.05
      vertex -6.42499 -7.94899 19.05
    endloop
  endfacet
  facet normal 0 0 1
    outer loop
      vertex 6.42499 -7.94899 19.05
      vertex -6.42499 -9.94899 19.05
      vertex 10.425 -9.94899 19.05
    endloop
  endfacet
  facet normal -0 0 1
    outer loop
      vertex -10.2853 -0.923874 19.05
      vertex -6.42499 -7.94899 19.05
      vertex -9.96089 -0.707092 19.05
    endloop
  endfacet
  facet normal 0 0 1
    outer loop
      vertex -6.42499 -7.94899 19.05
      vertex -7.07541 -9.84027 19.05
      vertex -6.42499 -9.94899 19.05
    endloop
  endfacet
  facet normal -0 0 1
    outer loop
      vertex -10.668 -1 19.05
      vertex -6.42499 -7.94899 19.05
      vertex -10.2853 -0.923874 19.05
    endloop
  endfacet
  facet normal -0 0 1
    outer loop
      vertex -14.925 -5.075 19.05
      vertex -6.42499 -7.94899 19.05
      vertex -10.668 -1 19.05
    endloop
  endfacet
  facet normal 0 0 1
    outer loop
      vertex -14.925 -5.075 19.05
      vertex -10.668 -1 19.05
      vertex -11.0507 -0.923874 19.05
    endloop
  endfacet
  facet normal 0 0 1
    outer loop
      vertex -14.925 -5.075 19.05
      vertex -11.0507 -0.923874 19.05
      vertex -11.3751 -0.707092 19.05
    endloop
  endfacet
  facet normal 0 0 1
    outer loop
      vertex -14.925 -5.075 19.05
      vertex -11.3751 -0.707092 19.05
      vertex -11.5919 -0.382675 19.05
    endloop
  endfacet
  facet normal 0 0 1
    outer loop
      vertex -11.5919 0.382675 19.05
      vertex -14.925 5.075 19.05
      vertex -11.668 0 19.05
    endloop
  endfacet
  facet normal 0 0 1
    outer loop
      vertex -6.42499 -7.94899 19.05
      vertex -14.8981 -7.14999 19.05
      vertex -7.07541 -9.84027 19.05
    endloop
  endfacet
  facet normal 0 0 1
    outer loop
      vertex -14.925 -5.075 19.05
      vertex -11.668 0 19.05
      vertex -14.925 5.075 19.05
    endloop
  endfacet
  facet normal 0 0 1
    outer loop
      vertex -14.925 -5.075 19.05
      vertex -11.5919 -0.382675 19.05
      vertex -11.668 0 19.05
    endloop
  endfacet
  facet normal 0 0 1
    outer loop
      vertex -14.8981 7.14999 19.05
      vertex -25.075 5.075 19.05
      vertex -14.925 5.075 19.05
    endloop
  endfacet
  facet normal -0 0 1
    outer loop
      vertex -27.15 5.14999 19.05
      vertex -25.075 5.075 19.05
      vertex -25.15 7.14999 19.05
    endloop
  endfacet
  facet normal -0 0 1
    outer loop
      vertex -25.15 7.14999 19.05
      vertex -25.075 5.075 19.05
      vertex -14.8981 7.14999 19.05
    endloop
  endfacet
  facet normal 0.555571 -0.831469 0
    outer loop
      vertex 11.1904 -9.79675 -19.05
      vertex 11.8392 -9.3632 19.05
      vertex 11.1904 -9.79675 19.05
    endloop
  endfacet
  facet normal 0.555571 -0.831469 0
    outer loop
      vertex 11.8392 -9.3632 19.05
      vertex 11.1904 -9.79675 -19.05
      vertex 11.8392 -9.3632 -19.05
    endloop
  endfacet
  facet normal 0.831469 -0.555571 0
    outer loop
      vertex 11.8392 -9.3632 19.05
      vertex 12.2728 -8.71436 -19.05
      vertex 12.2728 -8.71436 19.05
    endloop
  endfacet
  facet normal 0.831469 -0.555571 0
    outer loop
      vertex 12.2728 -8.71436 -19.05
      vertex 11.8392 -9.3632 19.05
      vertex 11.8392 -9.3632 -19.05
    endloop
  endfacet
  facet normal 0.980786 -0.195086 0
    outer loop
      vertex 12.2728 -8.71436 19.05
      vertex 12.425 -7.94899 -19.05
      vertex 12.425 -7.94899 19.05
    endloop
  endfacet
  facet normal 0.980786 -0.195086 0
    outer loop
      vertex 12.425 -7.94899 -19.05
      vertex 12.2728 -8.71436 19.05
      vertex 12.2728 -8.71436 -19.05
    endloop
  endfacet
  facet normal 1 -0 0
    outer loop
      vertex 12.425 1.61679 -8.2203
      vertex 12.425 7.94899 -19.05
      vertex 12.425 1.61679 8.2203
    endloop
  endfacet
  facet normal 1 0 0
    outer loop
      vertex 12.425 7.94899 -19.05
      vertex 12.425 1.61679 -8.2203
      vertex 12.425 1.75 -8.89
    endloop
  endfacet
  facet normal 1 -0 0
    outer loop
      vertex 12.425 1.23744 7.65256
      vertex 12.425 1.61679 -8.2203
      vertex 12.425 1.61679 8.2203
    endloop
  endfacet
  facet normal 1 0 0
    outer loop
      vertex 12.425 1.23744 7.65256
      vertex 12.425 1.23744 -7.65256
      vertex 12.425 1.61679 -8.2203
    endloop
  endfacet
  facet normal 1 -0 0
    outer loop
      vertex 12.425 0.669696 7.27321
      vertex 12.425 1.23744 -7.65256
      vertex 12.425 1.23744 7.65256
    endloop
  endfacet
  facet normal 1 0 0
    outer loop
      vertex 12.425 0.669696 7.27321
      vertex 12.425 0.669696 -7.27321
      vertex 12.425 1.23744 -7.65256
    endloop
  endfacet
  facet normal 1 0 0
    outer loop
      vertex 12.425 0.669696 7.27321
      vertex 12.425 -9.45907e-16 -7.14
      vertex 12.425 0.669696 -7.27321
    endloop
  endfacet
  facet normal 1 -0 0
    outer loop
      vertex 12.425 -1.72306e-15 7.14
      vertex 12.425 -9.45907e-16 -7.14
      vertex 12.425 0.669696 7.27321
    endloop
  endfacet
  facet normal 1 0 0
    outer loop
      vertex 12.425 -0.669696 7.27321
      vertex 12.425 -9.45907e-16 -7.14
      vertex 12.425 -1.72306e-15 7.14
    endloop
  endfacet
  facet normal 1 0 0
    outer loop
      vertex 12.425 -0.669696 7.27321
      vertex 12.425 -0.669696 -7.27321
      vertex 12.425 -9.45907e-16 -7.14
    endloop
  endfacet
  facet normal 1 0 0
    outer loop
      vertex 12.425 -1.23744 7.65256
      vertex 12.425 -0.669696 -7.27321
      vertex 12.425 -0.669696 7.27321
    endloop
  endfacet
  facet normal 1 0 0
    outer loop
      vertex 12.425 -1.23744 7.65256
      vertex 12.425 -1.23744 -7.65256
      vertex 12.425 -0.669696 -7.27321
    endloop
  endfacet
  facet normal 1 0 0
    outer loop
      vertex 12.425 -1.61679 8.2203
      vertex 12.425 -1.23744 -7.65256
      vertex 12.425 -1.23744 7.65256
    endloop
  endfacet
  facet normal 1 0 0
    outer loop
      vertex 12.425 -1.61679 8.2203
      vertex 12.425 -1.61679 -8.2203
      vertex 12.425 -1.23744 -7.65256
    endloop
  endfacet
  facet normal 1 0 0
    outer loop
      vertex 12.425 -1.75 8.89
      vertex 12.425 -1.61679 -8.2203
      vertex 12.425 -1.61679 8.2203
    endloop
  endfacet
  facet normal 1 0 0
    outer loop
      vertex 12.425 -1.61679 -8.2203
      vertex 12.425 -1.75 8.89
      vertex 12.425 -1.75 -8.89
    endloop
  endfacet
  facet normal 1 0 0
    outer loop
      vertex 12.425 7.94899 19.05
      vertex 12.425 1.61679 8.2203
      vertex 12.425 7.94899 -19.05
    endloop
  endfacet
  facet normal 1 0 0
    outer loop
      vertex 12.425 3.48 15.0062
      vertex 12.425 1.61679 9.5597
      vertex 12.425 1.75 8.89
    endloop
  endfacet
  facet normal 1 0 0
    outer loop
      vertex 12.425 3.48 15.0062
      vertex 12.425 1.23744 10.1274
      vertex 12.425 1.61679 9.5597
    endloop
  endfacet
  facet normal 1 0 0
    outer loop
      vertex 12.425 3.48 15.0062
      vertex 12.425 0.669696 10.5068
      vertex 12.425 1.23744 10.1274
    endloop
  endfacet
  facet normal 1 0 0
    outer loop
      vertex 12.425 3.48 15.0062
      vertex 12.425 -9.45907e-16 10.64
      vertex 12.425 0.669696 10.5068
    endloop
  endfacet
  facet normal 1 -0 0
    outer loop
      vertex 12.425 -3.52 15.0062
      vertex 12.425 -9.45907e-16 10.64
      vertex 12.425 3.48 15.0062
    endloop
  endfacet
  facet normal 1 0 0
    outer loop
      vertex 12.425 -9.45907e-16 10.64
      vertex 12.425 -3.52 15.0062
      vertex 12.425 -0.669696 10.5068
    endloop
  endfacet
  facet normal 1 0 0
    outer loop
      vertex 12.425 -1.75 8.89
      vertex 12.425 -3.52 15.0062
      vertex 12.425 -1.75 -8.89
    endloop
  endfacet
  facet normal 1 0 0
    outer loop
      vertex 12.425 -1.61679 9.5597
      vertex 12.425 -3.52 15.0062
      vertex 12.425 -1.75 8.89
    endloop
  endfacet
  facet normal 1 0 0
    outer loop
      vertex 12.425 -1.23744 10.1274
      vertex 12.425 -3.52 15.0062
      vertex 12.425 -1.61679 9.5597
    endloop
  endfacet
  facet normal 1 0 0
    outer loop
      vertex 12.425 -0.669696 10.5068
      vertex 12.425 -3.52 15.0062
      vertex 12.425 -1.23744 10.1274
    endloop
  endfacet
  facet normal 1 0 0
    outer loop
      vertex 12.425 3.48 15.0062
      vertex 12.425 7.94899 19.05
      vertex 12.425 3.48 16.7437
    endloop
  endfacet
  facet normal 1 0 0
    outer loop
      vertex 12.425 7.94899 19.05
      vertex 12.425 -3.52 16.7437
      vertex 12.425 3.48 16.7437
    endloop
  endfacet
  facet normal 1 0 0
    outer loop
      vertex 12.425 -7.94899 19.05
      vertex 12.425 -3.52 15.0062
      vertex 12.425 -3.52 16.7437
    endloop
  endfacet
  facet normal 1 0 0
    outer loop
      vertex 12.425 -3.52 15.0062
      vertex 12.425 -7.94899 19.05
      vertex 12.425 -3.52 -15.0062
    endloop
  endfacet
  facet normal 1 0 0
    outer loop
      vertex 12.425 -7.94899 -19.05
      vertex 12.425 -3.52 -15.0062
      vertex 12.425 -7.94899 19.05
    endloop
  endfacet
  facet normal 1 -0 0
    outer loop
      vertex 12.425 -7.94899 19.05
      vertex 12.425 -3.52 16.7437
      vertex 12.425 7.94899 19.05
    endloop
  endfacet
  facet normal 1 0 0
    outer loop
      vertex 12.425 1.75 8.89
      vertex 12.425 7.94899 19.05
      vertex 12.425 3.48 15.0062
    endloop
  endfacet
  facet normal 1 0 0
    outer loop
      vertex 12.425 1.61679 8.2203
      vertex 12.425 7.94899 19.05
      vertex 12.425 1.75 8.89
    endloop
  endfacet
  facet normal 1 -0 0
    outer loop
      vertex 12.425 3.48 -16.7437
      vertex 12.425 7.94899 -19.05
      vertex 12.425 3.48 -15.0062
    endloop
  endfacet
  facet normal 1 -0 0
    outer loop
      vertex 12.425 -3.52 -16.7437
      vertex 12.425 7.94899 -19.05
      vertex 12.425 3.48 -16.7437
    endloop
  endfacet
  facet normal 1 0 0
    outer loop
      vertex 12.425 -3.52 -16.7437
      vertex 12.425 -7.94899 -19.05
      vertex 12.425 7.94899 -19.05
    endloop
  endfacet
  facet normal 1 0 0
    outer loop
      vertex 12.425 -3.52 -15.0062
      vertex 12.425 -7.94899 -19.05
      vertex 12.425 -3.52 -16.7437
    endloop
  endfacet
  facet normal 1 0 0
    outer loop
      vertex 12.425 7.94899 -19.05
      vertex 12.425 1.75 -8.89
      vertex 12.425 3.48 -15.0062
    endloop
  endfacet
  facet normal 1 -0 0
    outer loop
      vertex 12.425 1.61679 -9.5597
      vertex 12.425 3.48 -15.0062
      vertex 12.425 1.75 -8.89
    endloop
  endfacet
  facet normal 1 -0 0
    outer loop
      vertex 12.425 1.23744 -10.1274
      vertex 12.425 3.48 -15.0062
      vertex 12.425 1.61679 -9.5597
    endloop
  endfacet
  facet normal 1 -0 0
    outer loop
      vertex 12.425 0.669696 -10.5068
      vertex 12.425 3.48 -15.0062
      vertex 12.425 1.23744 -10.1274
    endloop
  endfacet
  facet normal 1 -0 0
    outer loop
      vertex 12.425 -1.72306e-15 -10.64
      vertex 12.425 3.48 -15.0062
      vertex 12.425 0.669696 -10.5068
    endloop
  endfacet
  facet normal 1 0 0
    outer loop
      vertex 12.425 -3.52 -15.0062
      vertex 12.425 -1.72306e-15 -10.64
      vertex 12.425 -0.669696 -10.5068
    endloop
  endfacet
  facet normal 1 0 0
    outer loop
      vertex 12.425 -3.52 -15.0062
      vertex 12.425 -0.669696 -10.5068
      vertex 12.425 -1.23744 -10.1274
    endloop
  endfacet
  facet normal 1 0 0
    outer loop
      vertex 12.425 -1.72306e-15 -10.64
      vertex 12.425 -3.52 -15.0062
      vertex 12.425 3.48 -15.0062
    endloop
  endfacet
  facet normal 1 0 0
    outer loop
      vertex 12.425 -1.61679 -9.5597
      vertex 12.425 -3.52 -15.0062
      vertex 12.425 -1.23744 -10.1274
    endloop
  endfacet
  facet normal 1 0 0
    outer loop
      vertex 12.425 -1.75 -8.89
      vertex 12.425 -3.52 -15.0062
      vertex 12.425 -1.61679 -9.5597
    endloop
  endfacet
  facet normal 1 0 0
    outer loop
      vertex 12.425 -3.52 -15.0062
      vertex 12.425 -1.75 -8.89
      vertex 12.425 -3.52 15.0062
    endloop
  endfacet
  facet normal 0.980786 0.195086 0
    outer loop
      vertex 12.425 7.94899 19.05
      vertex 12.2728 8.71436 -19.05
      vertex 12.2728 8.71436 19.05
    endloop
  endfacet
  facet normal 0.980786 0.195086 0
    outer loop
      vertex 12.2728 8.71436 -19.05
      vertex 12.425 7.94899 19.05
      vertex 12.425 7.94899 -19.05
    endloop
  endfacet
  facet normal 0.831469 0.555571 0
    outer loop
      vertex 12.2728 8.71436 19.05
      vertex 11.8392 9.3632 -19.05
      vertex 11.8392 9.3632 19.05
    endloop
  endfacet
  facet normal 0.831469 0.555571 0
    outer loop
      vertex 11.8392 9.3632 -19.05
      vertex 12.2728 8.71436 19.05
      vertex 12.2728 8.71436 -19.05
    endloop
  endfacet
  facet normal 0.555571 0.831469 -0
    outer loop
      vertex 11.8392 9.3632 -19.05
      vertex 11.1904 9.79675 19.05
      vertex 11.8392 9.3632 19.05
    endloop
  endfacet
  facet normal 0.555571 0.831469 0
    outer loop
      vertex 11.1904 9.79675 19.05
      vertex 11.8392 9.3632 -19.05
      vertex 11.1904 9.79675 -19.05
    endloop
  endfacet
  facet normal 0.195086 0.980786 -0
    outer loop
      vertex 11.1904 9.79675 -19.05
      vertex 10.425 9.94899 19.05
      vertex 11.1904 9.79675 19.05
    endloop
  endfacet
  facet normal 0.195086 0.980786 0
    outer loop
      vertex 10.425 9.94899 19.05
      vertex 11.1904 9.79675 -19.05
      vertex 10.425 9.94899 -19.05
    endloop
  endfacet
  facet normal 0 1 -0
    outer loop
      vertex 10.425 9.94899 -19.05
      vertex -6.42499 9.94899 19.05
      vertex 10.425 9.94899 19.05
    endloop
  endfacet
  facet normal 0 1 0
    outer loop
      vertex -6.42499 9.94899 19.05
      vertex 10.425 9.94899 -19.05
      vertex -6.42499 9.94899 -19.05
    endloop
  endfacet
  facet normal -0.164864 0.986316 0
    outer loop
      vertex -6.42499 9.94899 -19.05
      vertex -7.07541 9.84027 19.05
      vertex -6.42499 9.94899 19.05
    endloop
  endfacet
  facet normal -0.164864 0.986316 0
    outer loop
      vertex -7.07541 9.84027 19.05
      vertex -6.42499 9.94899 -19.05
      vertex -7.07541 9.84027 -19.05
    endloop
  endfacet
  facet normal -0.325211 0.945642 0
    outer loop
      vertex -7.07541 9.84027 -19.05
      vertex -14.8981 7.14999 19.05
      vertex -7.07541 9.84027 19.05
    endloop
  endfacet
  facet normal -0.325211 0.945642 0
    outer loop
      vertex -14.8981 7.14999 19.05
      vertex -7.07541 9.84027 -19.05
      vertex -14.8981 7.14999 -19.05
    endloop
  endfacet
  facet normal 0 1 -0
    outer loop
      vertex -14.8981 7.14999 -19.05
      vertex -25.15 7.14999 19.05
      vertex -14.8981 7.14999 19.05
    endloop
  endfacet
  facet normal 0 1 0
    outer loop
      vertex -25.15 7.14999 19.05
      vertex -14.8981 7.14999 -19.05
      vertex -25.15 7.14999 -19.05
    endloop
  endfacet
  facet normal -0.195086 0.980786 0
    outer loop
      vertex -25.15 7.14999 -19.05
      vertex -25.9154 6.99776 19.05
      vertex -25.15 7.14999 19.05
    endloop
  endfacet
  facet normal -0.195086 0.980786 0
    outer loop
      vertex -25.9154 6.99776 19.05
      vertex -25.15 7.14999 -19.05
      vertex -25.9154 6.99776 -19.05
    endloop
  endfacet
  facet normal -0.555571 0.831469 0
    outer loop
      vertex -25.9154 6.99776 -19.05
      vertex -26.5642 6.56421 19.05
      vertex -25.9154 6.99776 19.05
    endloop
  endfacet
  facet normal -0.555571 0.831469 0
    outer loop
      vertex -26.5642 6.56421 19.05
      vertex -25.9154 6.99776 -19.05
      vertex -26.5642 6.56421 -19.05
    endloop
  endfacet
  facet normal -0.831469 0.555571 0
    outer loop
      vertex -26.9978 5.91536 -19.05
      vertex -26.5642 6.56421 19.05
      vertex -26.5642 6.56421 -19.05
    endloop
  endfacet
  facet normal -0.831469 0.555571 0
    outer loop
      vertex -26.5642 6.56421 19.05
      vertex -26.9978 5.91536 -19.05
      vertex -26.9978 5.91536 19.05
    endloop
  endfacet
  facet normal -0.980786 0.195086 0
    outer loop
      vertex -27.15 5.14999 -19.05
      vertex -26.9978 5.91536 19.05
      vertex -26.9978 5.91536 -19.05
    endloop
  endfacet
  facet normal -0.980786 0.195086 0
    outer loop
      vertex -26.9978 5.91536 19.05
      vertex -27.15 5.14999 -19.05
      vertex -27.15 5.14999 19.05
    endloop
  endfacet
  facet normal -1 0 0
    outer loop
      vertex -27.15 -5.14999 -19.05
      vertex -27.15 5.14999 19.05
      vertex -27.15 5.14999 -19.05
    endloop
  endfacet
  facet normal -1 -0 0
    outer loop
      vertex -27.15 5.14999 19.05
      vertex -27.15 -5.14999 -19.05
      vertex -27.15 -5.14999 19.05
    endloop
  endfacet
  facet normal -0.980786 -0.195086 0
    outer loop
      vertex -26.9978 -5.91536 -19.05
      vertex -27.15 -5.14999 19.05
      vertex -27.15 -5.14999 -19.05
    endloop
  endfacet
  facet normal -0.980786 -0.195086 0
    outer loop
      vertex -27.15 -5.14999 19.05
      vertex -26.9978 -5.91536 -19.05
      vertex -26.9978 -5.91536 19.05
    endloop
  endfacet
  facet normal -0.831469 -0.555571 0
    outer loop
      vertex -26.5642 -6.56421 -19.05
      vertex -26.9978 -5.91536 19.05
      vertex -26.9978 -5.91536 -19.05
    endloop
  endfacet
  facet normal -0.831469 -0.555571 0
    outer loop
      vertex -26.9978 -5.91536 19.05
      vertex -26.5642 -6.56421 -19.05
      vertex -26.5642 -6.56421 19.05
    endloop
  endfacet
  facet normal -0.555571 -0.831469 0
    outer loop
      vertex -26.5642 -6.56421 -19.05
      vertex -25.9154 -6.99776 19.05
      vertex -26.5642 -6.56421 19.05
    endloop
  endfacet
  facet normal -0.555571 -0.831469 -0
    outer loop
      vertex -25.9154 -6.99776 19.05
      vertex -26.5642 -6.56421 -19.05
      vertex -25.9154 -6.99776 -19.05
    endloop
  endfacet
  facet normal -0.195086 -0.980786 0
    outer loop
      vertex -25.9154 -6.99776 -19.05
      vertex -25.15 -7.14999 19.05
      vertex -25.9154 -6.99776 19.05
    endloop
  endfacet
  facet normal -0.195086 -0.980786 -0
    outer loop
      vertex -25.15 -7.14999 19.05
      vertex -25.9154 -6.99776 -19.05
      vertex -25.15 -7.14999 -19.05
    endloop
  endfacet
  facet normal 0 -1 0
    outer loop
      vertex -25.15 -7.14999 -19.05
      vertex -14.8981 -7.14999 19.05
      vertex -25.15 -7.14999 19.05
    endloop
  endfacet
  facet normal 0 -1 -0
    outer loop
      vertex -14.8981 -7.14999 19.05
      vertex -25.15 -7.14999 -19.05
      vertex -14.8981 -7.14999 -19.05
    endloop
  endfacet
  facet normal -0.325211 -0.945642 0
    outer loop
      vertex -14.8981 -7.14999 -19.05
      vertex -7.07541 -9.84027 19.05
      vertex -14.8981 -7.14999 19.05
    endloop
  endfacet
  facet normal -0.325211 -0.945642 -0
    outer loop
      vertex -7.07541 -9.84027 19.05
      vertex -14.8981 -7.14999 -19.05
      vertex -7.07541 -9.84027 -19.05
    endloop
  endfacet
  facet normal -0.164864 -0.986316 0
    outer loop
      vertex -7.07541 -9.84027 -19.05
      vertex -6.42499 -9.94899 19.05
      vertex -7.07541 -9.84027 19.05
    endloop
  endfacet
  facet normal -0.164864 -0.986316 -0
    outer loop
      vertex -6.42499 -9.94899 19.05
      vertex -7.07541 -9.84027 -19.05
      vertex -6.42499 -9.94899 -19.05
    endloop
  endfacet
  facet normal 0 -1 0
    outer loop
      vertex -6.42499 -9.94899 -19.05
      vertex 10.425 -9.94899 19.05
      vertex -6.42499 -9.94899 19.05
    endloop
  endfacet
  facet normal 0 -1 -0
    outer loop
      vertex 10.425 -9.94899 19.05
      vertex -6.42499 -9.94899 -19.05
      vertex 10.425 -9.94899 -19.05
    endloop
  endfacet
  facet normal 0.195086 -0.980786 0
    outer loop
      vertex 10.425 -9.94899 -19.05
      vertex 11.1904 -9.79675 19.05
      vertex 10.425 -9.94899 19.05
    endloop
  endfacet
  facet normal 0.195086 -0.980786 0
    outer loop
      vertex 11.1904 -9.79675 19.05
      vertex 10.425 -9.94899 -19.05
      vertex 11.1904 -9.79675 -19.05
    endloop
  endfacet
  facet normal 1 -0 0
    outer loop
      vertex -6.42499 -7.94899 19.05
      vertex -6.42499 7.94899 -19.05
      vertex -6.42499 7.94899 19.05
    endloop
  endfacet
  facet normal 1 0 0
    outer loop
      vertex -6.42499 7.94899 -19.05
      vertex -6.42499 -7.94899 19.05
      vertex -6.42499 -7.94899 -19.05
    endloop
  endfacet
  facet normal 0 -1 0
    outer loop
      vertex -6.42499 7.94899 -19.05
      vertex 6.42499 7.94899 19.05
      vertex -6.42499 7.94899 19.05
    endloop
  endfacet
  facet normal 0 -1 -0
    outer loop
      vertex 6.42499 7.94899 19.05
      vertex -6.42499 7.94899 -19.05
      vertex 6.42499 7.94899 -19.05
    endloop
  endfacet
  facet normal -1 0 0
    outer loop
      vertex 6.42499 7.94899 -19.05
      vertex 6.42499 3.5 -16.7437
      vertex 6.42499 7.94899 19.05
    endloop
  endfacet
  facet normal -1 0 0
    outer loop
      vertex 6.42499 7.94899 -19.05
      vertex 6.42499 -3.5 -16.7437
      vertex 6.42499 3.5 -16.7437
    endloop
  endfacet
  facet normal -1 0 0
    outer loop
      vertex 6.42499 -7.94899 -19.05
      vertex 6.42499 -3.5 -8.89
      vertex 6.42499 -3.5 -16.7437
    endloop
  endfacet
  facet normal -1 -0 0
    outer loop
      vertex 6.42499 -3.5 -8.89
      vertex 6.42499 -7.94899 -19.05
      vertex 6.42499 -3.5 8.89
    endloop
  endfacet
  facet normal -1 0 0
    outer loop
      vertex 6.42499 -7.94899 19.05
      vertex 6.42499 -3.5 8.89
      vertex 6.42499 -7.94899 -19.05
    endloop
  endfacet
  facet normal -1 0 0
    outer loop
      vertex 6.42499 -7.94899 -19.05
      vertex 6.42499 -3.5 -16.7437
      vertex 6.42499 7.94899 -19.05
    endloop
  endfacet
  facet normal -1 0 0
    outer loop
      vertex 6.42499 3.5 16.7437
      vertex 6.42499 7.94899 19.05
      vertex 6.42499 3.5 -16.7437
    endloop
  endfacet
  facet normal -1 0 0
    outer loop
      vertex 6.42499 -3.5 16.7437
      vertex 6.42499 7.94899 19.05
      vertex 6.42499 3.5 16.7437
    endloop
  endfacet
  facet normal -1 0 0
    outer loop
      vertex 6.42499 -3.5 16.7437
      vertex 6.42499 -7.94899 19.05
      vertex 6.42499 7.94899 19.05
    endloop
  endfacet
  facet normal -1 0 0
    outer loop
      vertex 6.42499 -3.5 8.89
      vertex 6.42499 -7.94899 19.05
      vertex 6.42499 -3.5 16.7437
    endloop
  endfacet
  facet normal 0 1 -0
    outer loop
      vertex 6.42499 -7.94899 -19.05
      vertex -6.42499 -7.94899 19.05
      vertex 6.42499 -7.94899 19.05
    endloop
  endfacet
  facet normal 0 1 0
    outer loop
      vertex -6.42499 -7.94899 19.05
      vertex 6.42499 -7.94899 -19.05
      vertex -6.42499 -7.94899 -19.05
    endloop
  endfacet
  facet normal 1 -0 0
    outer loop
      vertex -25.075 -5.075 19.05
      vertex -25.075 5.075 -19.05
      vertex -25.075 5.075 19.05
    endloop
  endfacet
  facet normal 1 0 0
    outer loop
      vertex -25.075 5.075 -19.05
      vertex -25.075 -5.075 19.05
      vertex -25.075 -5.075 -19.05
    endloop
  endfacet
  facet normal 0 -1 0
    outer loop
      vertex -25.075 5.075 -19.05
      vertex -14.925 5.075 19.05
      vertex -25.075 5.075 19.05
    endloop
  endfacet
  facet normal 0 -1 -0
    outer loop
      vertex -14.925 5.075 19.05
      vertex -25.075 5.075 -19.05
      vertex -14.925 5.075 -19.05
    endloop
  endfacet
  facet normal -1 0 0
    outer loop
      vertex -14.925 -5.075 -19.05
      vertex -14.925 5.075 19.05
      vertex -14.925 5.075 -19.05
    endloop
  endfacet
  facet normal -1 -0 0
    outer loop
      vertex -14.925 5.075 19.05
      vertex -14.925 -5.075 -19.05
      vertex -14.925 -5.075 19.05
    endloop
  endfacet
  facet normal 0 1 -0
    outer loop
      vertex -14.925 -5.075 -19.05
      vertex -25.075 -5.075 19.05
      vertex -14.925 -5.075 19.05
    endloop
  endfacet
  facet normal 0 1 0
    outer loop
      vertex -25.075 -5.075 19.05
      vertex -14.925 -5.075 -19.05
      vertex -25.075 -5.075 -19.05
    endloop
  endfacet
  facet normal 0.555593 0.831454 -0
    outer loop
      vertex -11.0507 -0.923874 -19.05
      vertex -11.3751 -0.707092 19.05
      vertex -11.0507 -0.923874 19.05
    endloop
  endfacet
  facet normal 0.555593 0.831454 0
    outer loop
      vertex -11.3751 -0.707092 19.05
      vertex -11.0507 -0.923874 -19.05
      vertex -11.3751 -0.707092 -19.05
    endloop
  endfacet
  facet normal 0.831454 0.555593 0
    outer loop
      vertex -11.3751 -0.707092 19.05
      vertex -11.5919 -0.382675 -19.05
      vertex -11.5919 -0.382675 19.05
    endloop
  endfacet
  facet normal 0.831454 0.555593 0
    outer loop
      vertex -11.5919 -0.382675 -19.05
      vertex -11.3751 -0.707092 19.05
      vertex -11.3751 -0.707092 -19.05
    endloop
  endfacet
  facet normal 0.980782 0.195108 0
    outer loop
      vertex -11.5919 -0.382675 19.05
      vertex -11.668 0 -19.05
      vertex -11.668 0 19.05
    endloop
  endfacet
  facet normal 0.980782 0.195108 0
    outer loop
      vertex -11.668 0 -19.05
      vertex -11.5919 -0.382675 19.05
      vertex -11.5919 -0.382675 -19.05
    endloop
  endfacet
  facet normal 0.980782 -0.195108 0
    outer loop
      vertex -11.668 0 19.05
      vertex -11.5919 0.382675 -19.05
      vertex -11.5919 0.382675 19.05
    endloop
  endfacet
  facet normal 0.980782 -0.195108 0
    outer loop
      vertex -11.5919 0.382675 -19.05
      vertex -11.668 0 19.05
      vertex -11.668 0 -19.05
    endloop
  endfacet
  facet normal 0.831454 -0.555593 0
    outer loop
      vertex -11.5919 0.382675 19.05
      vertex -11.3751 0.707092 -19.05
      vertex -11.3751 0.707092 19.05
    endloop
  endfacet
  facet normal 0.831454 -0.555593 0
    outer loop
      vertex -11.3751 0.707092 -19.05
      vertex -11.5919 0.382675 19.05
      vertex -11.5919 0.382675 -19.05
    endloop
  endfacet
  facet normal 0.555593 -0.831454 0
    outer loop
      vertex -11.3751 0.707092 -19.05
      vertex -11.0507 0.923874 19.05
      vertex -11.3751 0.707092 19.05
    endloop
  endfacet
  facet normal 0.555593 -0.831454 0
    outer loop
      vertex -11.0507 0.923874 19.05
      vertex -11.3751 0.707092 -19.05
      vertex -11.0507 0.923874 -19.05
    endloop
  endfacet
  facet normal 0.195108 -0.980782 0
    outer loop
      vertex -11.0507 0.923874 -19.05
      vertex -10.668 1 19.05
      vertex -11.0507 0.923874 19.05
    endloop
  endfacet
  facet normal 0.195108 -0.980782 0
    outer loop
      vertex -10.668 1 19.05
      vertex -11.0507 0.923874 -19.05
      vertex -10.668 1 -19.05
    endloop
  endfacet
  facet normal -0.195101 -0.980783 0
    outer loop
      vertex -10.668 1 -19.05
      vertex -10.2853 0.923874 19.05
      vertex -10.668 1 19.05
    endloop
  endfacet
  facet normal -0.195101 -0.980783 -0
    outer loop
      vertex -10.2853 0.923874 19.05
      vertex -10.668 1 -19.05
      vertex -10.2853 0.923874 -19.05
    endloop
  endfacet
  facet normal -0.555593 -0.831454 0
    outer loop
      vertex -10.2853 0.923874 -19.05
      vertex -9.96089 0.707092 19.05
      vertex -10.2853 0.923874 19.05
    endloop
  endfacet
  facet normal -0.555593 -0.831454 -0
    outer loop
      vertex -9.96089 0.707092 19.05
      vertex -10.2853 0.923874 -19.05
      vertex -9.96089 0.707092 -19.05
    endloop
  endfacet
  facet normal -0.831454 -0.555593 0
    outer loop
      vertex -9.74411 0.382675 -19.05
      vertex -9.96089 0.707092 19.05
      vertex -9.96089 0.707092 -19.05
    endloop
  endfacet
  facet normal -0.831454 -0.555593 0
    outer loop
      vertex -9.96089 0.707092 19.05
      vertex -9.74411 0.382675 -19.05
      vertex -9.74411 0.382675 19.05
    endloop
  endfacet
  facet normal -0.980789 -0.195071 0
    outer loop
      vertex -9.668 0 -19.05
      vertex -9.74411 0.382675 19.05
      vertex -9.74411 0.382675 -19.05
    endloop
  endfacet
  facet normal -0.980789 -0.195071 0
    outer loop
      vertex -9.74411 0.382675 19.05
      vertex -9.668 0 -19.05
      vertex -9.668 0 19.05
    endloop
  endfacet
  facet normal -0.980789 0.195071 0
    outer loop
      vertex -9.74411 -0.382675 -19.05
      vertex -9.668 0 19.05
      vertex -9.668 0 -19.05
    endloop
  endfacet
  facet normal -0.980789 0.195071 0
    outer loop
      vertex -9.668 0 19.05
      vertex -9.74411 -0.382675 -19.05
      vertex -9.74411 -0.382675 19.05
    endloop
  endfacet
  facet normal -0.831454 0.555593 0
    outer loop
      vertex -9.96089 -0.707092 -19.05
      vertex -9.74411 -0.382675 19.05
      vertex -9.74411 -0.382675 -19.05
    endloop
  endfacet
  facet normal -0.831454 0.555593 0
    outer loop
      vertex -9.74411 -0.382675 19.05
      vertex -9.96089 -0.707092 -19.05
      vertex -9.96089 -0.707092 19.05
    endloop
  endfacet
  facet normal -0.555593 0.831454 0
    outer loop
      vertex -9.96089 -0.707092 -19.05
      vertex -10.2853 -0.923874 19.05
      vertex -9.96089 -0.707092 19.05
    endloop
  endfacet
  facet normal -0.555593 0.831454 0
    outer loop
      vertex -10.2853 -0.923874 19.05
      vertex -9.96089 -0.707092 -19.05
      vertex -10.2853 -0.923874 -19.05
    endloop
  endfacet
  facet normal -0.195101 0.980783 0
    outer loop
      vertex -10.2853 -0.923874 -19.05
      vertex -10.668 -1 19.05
      vertex -10.2853 -0.923874 19.05
    endloop
  endfacet
  facet normal -0.195101 0.980783 0
    outer loop
      vertex -10.668 -1 19.05
      vertex -10.2853 -0.923874 -19.05
      vertex -10.668 -1 -19.05
    endloop
  endfacet
  facet normal 0.195108 0.980782 -0
    outer loop
      vertex -10.668 -1 -19.05
      vertex -11.0507 -0.923874 19.05
      vertex -10.668 -1 19.05
    endloop
  endfacet
  facet normal 0.195108 0.980782 0
    outer loop
      vertex -11.0507 -0.923874 19.05
      vertex -10.668 -1 -19.05
      vertex -11.0507 -0.923874 -19.05
    endloop
  endfacet
endsolid OpenSCAD_Model
