solid OpenSCAD_Model
  facet normal 0 -0.980785 -0.195091
    outer loop
      vertex 8.415 1.75 -3.88578e-16
      vertex 10.425 1.61679 0.669696
      vertex 8.415 1.61679 0.669696
    endloop
  endfacet
  facet normal 0 -0.980785 -0.195091
    outer loop
      vertex 10.425 1.61679 0.669696
      vertex 8.415 1.75 -3.88578e-16
      vertex 10.425 1.75 -3.88578e-16
    endloop
  endfacet
  facet normal 0 0.980785 -0.195091
    outer loop
      vertex 10.425 -1.75 3.88578e-16
      vertex 8.415 -1.61679 0.669696
      vertex 10.425 -1.61679 0.669696
    endloop
  endfacet
  facet normal 0 0.980785 -0.195091
    outer loop
      vertex 8.415 -1.61679 0.669696
      vertex 10.425 -1.75 3.88578e-16
      vertex 8.415 -1.75 3.88578e-16
    endloop
  endfacet
  facet normal -4.33189e-17 -0.195091 -0.980785
    outer loop
      vertex 8.415 -5.55112e-17 1.75
      vertex 10.425 0.669696 1.61679
      vertex 10.425 -5.01818e-16 1.75
    endloop
  endfacet
  facet normal -0 -0.195091 -0.980785
    outer loop
      vertex 10.425 0.669696 1.61679
      vertex 8.415 -5.55112e-17 1.75
      vertex 8.415 0.669696 1.61679
    endloop
  endfacet
  facet normal 0 -0.555571 -0.831469
    outer loop
      vertex 8.415 0.669696 1.61679
      vertex 10.425 1.23744 1.23744
      vertex 10.425 0.669696 1.61679
    endloop
  endfacet
  facet normal -0 -0.555571 -0.831469
    outer loop
      vertex 10.425 1.23744 1.23744
      vertex 8.415 0.669696 1.61679
      vertex 8.415 1.23744 1.23744
    endloop
  endfacet
  facet normal 0 -0.831469 -0.555571
    outer loop
      vertex 8.415 1.61679 0.669696
      vertex 10.425 1.23744 1.23744
      vertex 8.415 1.23744 1.23744
    endloop
  endfacet
  facet normal 0 -0.831469 -0.555571
    outer loop
      vertex 10.425 1.23744 1.23744
      vertex 8.415 1.61679 0.669696
      vertex 10.425 1.61679 0.669696
    endloop
  endfacet
  facet normal 0 0.555571 -0.831469
    outer loop
      vertex 8.415 -1.23744 1.23744
      vertex 10.425 -0.669696 1.61679
      vertex 10.425 -1.23744 1.23744
    endloop
  endfacet
  facet normal 0 0.555571 -0.831469
    outer loop
      vertex 10.425 -0.669696 1.61679
      vertex 8.415 -1.23744 1.23744
      vertex 8.415 -0.669696 1.61679
    endloop
  endfacet
  facet normal 0 0.831469 -0.555571
    outer loop
      vertex 10.425 -1.61679 0.669696
      vertex 8.415 -1.23744 1.23744
      vertex 10.425 -1.23744 1.23744
    endloop
  endfacet
  facet normal 0 0.831469 -0.555571
    outer loop
      vertex 8.415 -1.23744 1.23744
      vertex 10.425 -1.61679 0.669696
      vertex 8.415 -1.61679 0.669696
    endloop
  endfacet
  facet normal 0 0.195091 -0.980785
    outer loop
      vertex 8.415 -0.669696 1.61679
      vertex 10.425 -5.01818e-16 1.75
      vertex 10.425 -0.669696 1.61679
    endloop
  endfacet
  facet normal 4.33189e-17 0.195091 -0.980785
    outer loop
      vertex 10.425 -5.01818e-16 1.75
      vertex 8.415 -0.669696 1.61679
      vertex 8.415 -5.55112e-17 1.75
    endloop
  endfacet
  facet normal 0 -0.980785 0.195091
    outer loop
      vertex 8.415 1.61679 -0.669696
      vertex 10.425 1.75 -3.88578e-16
      vertex 8.415 1.75 -3.88578e-16
    endloop
  endfacet
  facet normal 0 -0.980785 0.195091
    outer loop
      vertex 10.425 1.75 -3.88578e-16
      vertex 8.415 1.61679 -0.669696
      vertex 10.425 1.61679 -0.669696
    endloop
  endfacet
  facet normal -0 0.555571 0.831469
    outer loop
      vertex 8.415 -0.669696 -1.61679
      vertex 10.425 -1.23744 -1.23744
      vertex 10.425 -0.669696 -1.61679
    endloop
  endfacet
  facet normal 0 0.555571 0.831469
    outer loop
      vertex 10.425 -1.23744 -1.23744
      vertex 8.415 -0.669696 -1.61679
      vertex 8.415 -1.23744 -1.23744
    endloop
  endfacet
  facet normal 0 0.980785 0.195091
    outer loop
      vertex 10.425 -1.61679 -0.669696
      vertex 8.415 -1.75 3.88578e-16
      vertex 10.425 -1.75 3.88578e-16
    endloop
  endfacet
  facet normal 0 0.980785 0.195091
    outer loop
      vertex 8.415 -1.75 3.88578e-16
      vertex 10.425 -1.61679 -0.669696
      vertex 8.415 -1.61679 -0.669696
    endloop
  endfacet
  facet normal 0 -0.195091 0.980785
    outer loop
      vertex 8.415 0.669696 -1.61679
      vertex 10.425 -1.27897e-15 -1.75
      vertex 10.425 0.669696 -1.61679
    endloop
  endfacet
  facet normal -4.33189e-17 -0.195091 0.980785
    outer loop
      vertex 10.425 -1.27897e-15 -1.75
      vertex 8.415 0.669696 -1.61679
      vertex 8.415 -8.32667e-16 -1.75
    endloop
  endfacet
  facet normal 4.33189e-17 0.195091 0.980785
    outer loop
      vertex 8.415 -8.32667e-16 -1.75
      vertex 10.425 -0.669696 -1.61679
      vertex 10.425 -1.27897e-15 -1.75
    endloop
  endfacet
  facet normal 0 0.195091 0.980785
    outer loop
      vertex 10.425 -0.669696 -1.61679
      vertex 8.415 -8.32667e-16 -1.75
      vertex 8.415 -0.669696 -1.61679
    endloop
  endfacet
  facet normal 0 0.831469 0.555571
    outer loop
      vertex 10.425 -1.23744 -1.23744
      vertex 8.415 -1.61679 -0.669696
      vertex 10.425 -1.61679 -0.669696
    endloop
  endfacet
  facet normal 0 0.831469 0.555571
    outer loop
      vertex 8.415 -1.61679 -0.669696
      vertex 10.425 -1.23744 -1.23744
      vertex 8.415 -1.23744 -1.23744
    endloop
  endfacet
  facet normal 0 -0.555571 0.831469
    outer loop
      vertex 8.415 1.23744 -1.23744
      vertex 10.425 0.669696 -1.61679
      vertex 10.425 1.23744 -1.23744
    endloop
  endfacet
  facet normal 0 -0.555571 0.831469
    outer loop
      vertex 10.425 0.669696 -1.61679
      vertex 8.415 1.23744 -1.23744
      vertex 8.415 0.669696 -1.61679
    endloop
  endfacet
  facet normal 0 -0.831469 0.555571
    outer loop
      vertex 8.415 1.23744 -1.23744
      vertex 10.425 1.61679 -0.669696
      vertex 8.415 1.61679 -0.669696
    endloop
  endfacet
  facet normal 0 -0.831469 0.555571
    outer loop
      vertex 10.425 1.61679 -0.669696
      vertex 8.415 1.23744 -1.23744
      vertex 10.425 1.23744 -1.23744
    endloop
  endfacet
  facet normal 0 -0.866025 -0.5
    outer loop
      vertex 6.42499 3.5 -7.77156e-16
      vertex 8.415 1.75 3.03109
      vertex 6.42499 1.75 3.03109
    endloop
  endfacet
  facet normal 0 -0.866025 -0.5
    outer loop
      vertex 8.415 1.75 3.03109
      vertex 6.42499 3.5 -7.77156e-16
      vertex 8.415 3.5 -7.77156e-16
    endloop
  endfacet
  facet normal 0 0.866025 -0.5
    outer loop
      vertex 8.415 -3.5 7.77156e-16
      vertex 6.42499 -1.75 3.03109
      vertex 8.415 -1.75 3.03109
    endloop
  endfacet
  facet normal 0 0.866025 -0.5
    outer loop
      vertex 6.42499 -1.75 3.03109
      vertex 8.415 -3.5 7.77156e-16
      vertex 6.42499 -3.5 7.77156e-16
    endloop
  endfacet
  facet normal 0 0 -1
    outer loop
      vertex 6.42499 -1.75 3.03109
      vertex 8.415 1.75 3.03109
      vertex 8.415 -1.75 3.03109
    endloop
  endfacet
  facet normal -0 0 -1
    outer loop
      vertex 8.415 1.75 3.03109
      vertex 6.42499 -1.75 3.03109
      vertex 6.42499 1.75 3.03109
    endloop
  endfacet
  facet normal -1 -0 0
    outer loop
      vertex 8.415 3.5 -7.77156e-16
      vertex 8.415 1.61679 -0.669696
      vertex 8.415 1.75 -3.88578e-16
    endloop
  endfacet
  facet normal -1 0 0
    outer loop
      vertex 8.415 1.75 -3.03109
      vertex 8.415 1.23744 -1.23744
      vertex 8.415 1.61679 -0.669696
    endloop
  endfacet
  facet normal -1 0 0
    outer loop
      vertex 8.415 1.75 -3.03109
      vertex 8.415 0.669696 -1.61679
      vertex 8.415 1.23744 -1.23744
    endloop
  endfacet
  facet normal -1 0 0
    outer loop
      vertex 8.415 1.75 -3.03109
      vertex 8.415 -8.32667e-16 -1.75
      vertex 8.415 0.669696 -1.61679
    endloop
  endfacet
  facet normal -1 0 0
    outer loop
      vertex 8.415 -1.75 -3.03109
      vertex 8.415 -8.32667e-16 -1.75
      vertex 8.415 1.75 -3.03109
    endloop
  endfacet
  facet normal -1 -0 0
    outer loop
      vertex 8.415 -8.32667e-16 -1.75
      vertex 8.415 -1.75 -3.03109
      vertex 8.415 -0.669696 -1.61679
    endloop
  endfacet
  facet normal -1 0 0
    outer loop
      vertex 8.415 -1.75 -3.03109
      vertex 8.415 -1.23744 -1.23744
      vertex 8.415 -0.669696 -1.61679
    endloop
  endfacet
  facet normal -1 0 0
    outer loop
      vertex 8.415 -1.75 -3.03109
      vertex 8.415 -1.61679 -0.669696
      vertex 8.415 -1.23744 -1.23744
    endloop
  endfacet
  facet normal -1 0 0
    outer loop
      vertex 8.415 -3.5 7.77156e-16
      vertex 8.415 -1.61679 -0.669696
      vertex 8.415 -1.75 -3.03109
    endloop
  endfacet
  facet normal -1 0 0
    outer loop
      vertex 8.415 -1.61679 -0.669696
      vertex 8.415 -3.5 7.77156e-16
      vertex 8.415 -1.75 3.88578e-16
    endloop
  endfacet
  facet normal -1 0 0
    outer loop
      vertex 8.415 1.61679 -0.669696
      vertex 8.415 3.5 -7.77156e-16
      vertex 8.415 1.75 -3.03109
    endloop
  endfacet
  facet normal -1 0 0
    outer loop
      vertex 8.415 1.61679 0.669696
      vertex 8.415 3.5 -7.77156e-16
      vertex 8.415 1.75 -3.88578e-16
    endloop
  endfacet
  facet normal -1 0 0
    outer loop
      vertex 8.415 3.5 -7.77156e-16
      vertex 8.415 1.61679 0.669696
      vertex 8.415 1.75 3.03109
    endloop
  endfacet
  facet normal -1 0 0
    outer loop
      vertex 8.415 1.23744 1.23744
      vertex 8.415 1.75 3.03109
      vertex 8.415 1.61679 0.669696
    endloop
  endfacet
  facet normal -1 0 0
    outer loop
      vertex 8.415 0.669696 1.61679
      vertex 8.415 1.75 3.03109
      vertex 8.415 1.23744 1.23744
    endloop
  endfacet
  facet normal -1 0 0
    outer loop
      vertex 8.415 -5.55112e-17 1.75
      vertex 8.415 1.75 3.03109
      vertex 8.415 0.669696 1.61679
    endloop
  endfacet
  facet normal -1 0 0
    outer loop
      vertex 8.415 -1.75 3.03109
      vertex 8.415 -5.55112e-17 1.75
      vertex 8.415 -0.669696 1.61679
    endloop
  endfacet
  facet normal -1 0 0
    outer loop
      vertex 8.415 -5.55112e-17 1.75
      vertex 8.415 -1.75 3.03109
      vertex 8.415 1.75 3.03109
    endloop
  endfacet
  facet normal -1 0 0
    outer loop
      vertex 8.415 -1.23744 1.23744
      vertex 8.415 -1.75 3.03109
      vertex 8.415 -0.669696 1.61679
    endloop
  endfacet
  facet normal -1 0 0
    outer loop
      vertex 8.415 -1.61679 0.669696
      vertex 8.415 -1.75 3.03109
      vertex 8.415 -1.23744 1.23744
    endloop
  endfacet
  facet normal -1 0 0
    outer loop
      vertex 8.415 -3.5 7.77156e-16
      vertex 8.415 -1.61679 0.669696
      vertex 8.415 -1.75 3.88578e-16
    endloop
  endfacet
  facet normal -1 -0 0
    outer loop
      vertex 8.415 -1.61679 0.669696
      vertex 8.415 -3.5 7.77156e-16
      vertex 8.415 -1.75 3.03109
    endloop
  endfacet
  facet normal 0 -0.866025 0.5
    outer loop
      vertex 6.42499 1.75 -3.03109
      vertex 8.415 3.5 -7.77156e-16
      vertex 6.42499 3.5 -7.77156e-16
    endloop
  endfacet
  facet normal 0 -0.866025 0.5
    outer loop
      vertex 8.415 3.5 -7.77156e-16
      vertex 6.42499 1.75 -3.03109
      vertex 8.415 1.75 -3.03109
    endloop
  endfacet
  facet normal -0 0 1
    outer loop
      vertex 6.42499 1.75 -3.03109
      vertex 8.415 -1.75 -3.03109
      vertex 8.415 1.75 -3.03109
    endloop
  endfacet
  facet normal 0 0 1
    outer loop
      vertex 8.415 -1.75 -3.03109
      vertex 6.42499 1.75 -3.03109
      vertex 6.42499 -1.75 -3.03109
    endloop
  endfacet
  facet normal 0 0.866025 0.5
    outer loop
      vertex 8.415 -1.75 -3.03109
      vertex 6.42499 -3.5 7.77156e-16
      vertex 8.415 -3.5 7.77156e-16
    endloop
  endfacet
  facet normal 0 0.866025 0.5
    outer loop
      vertex 6.42499 -3.5 7.77156e-16
      vertex 8.415 -1.75 -3.03109
      vertex 6.42499 -1.75 -3.03109
    endloop
  endfacet
  facet normal 0 0 -1
    outer loop
      vertex 6.42499 -7.21875 -4.7625
      vertex 10.425 -7.21875 -4.7625
      vertex 10.2728 -7.98412 -4.7625
    endloop
  endfacet
  facet normal 0 0 -1
    outer loop
      vertex 10.425 -7.21875 -4.7625
      vertex 6.42499 -7.21875 -4.7625
      vertex 10.425 7.21875 -4.7625
    endloop
  endfacet
  facet normal 0 0 -1
    outer loop
      vertex 6.42499 -7.21875 -4.7625
      vertex 10.2728 -7.98412 -4.7625
      vertex 9.8392 -8.63297 -4.7625
    endloop
  endfacet
  facet normal 0 0 -1
    outer loop
      vertex 6.42499 7.21875 -4.7625
      vertex 10.425 7.21875 -4.7625
      vertex 6.42499 -7.21875 -4.7625
    endloop
  endfacet
  facet normal 0 0 -1
    outer loop
      vertex 6.42499 -7.21875 -4.7625
      vertex 9.8392 -8.63297 -4.7625
      vertex 9.19035 -9.06651 -4.7625
    endloop
  endfacet
  facet normal 0 0 -1
    outer loop
      vertex 10.425 7.21875 -4.7625
      vertex 6.42499 7.21875 -4.7625
      vertex 10.2728 7.98412 -4.7625
    endloop
  endfacet
  facet normal 0 0 -1
    outer loop
      vertex 6.42499 -7.21875 -4.7625
      vertex 9.19035 -9.06651 -4.7625
      vertex 8.42499 -9.21875 -4.7625
    endloop
  endfacet
  facet normal -0 0 -1
    outer loop
      vertex 10.2728 7.98412 -4.7625
      vertex 6.42499 7.21875 -4.7625
      vertex 9.8392 8.63297 -4.7625
    endloop
  endfacet
  facet normal -0 0 -1
    outer loop
      vertex 9.8392 8.63297 -4.7625
      vertex 6.42499 7.21875 -4.7625
      vertex 9.19035 9.06651 -4.7625
    endloop
  endfacet
  facet normal 0 0 -1
    outer loop
      vertex -6.42499 -9.21875 -4.7625
      vertex 6.42499 -7.21875 -4.7625
      vertex 8.42499 -9.21875 -4.7625
    endloop
  endfacet
  facet normal 0 0 -1
    outer loop
      vertex -6.42499 -9.21875 -4.7625
      vertex -6.42499 -7.21875 -4.7625
      vertex 6.42499 -7.21875 -4.7625
    endloop
  endfacet
  facet normal 0 0 -1
    outer loop
      vertex -6.92598 -9.15498 -4.7625
      vertex -6.42499 -7.21875 -4.7625
      vertex -6.42499 -9.21875 -4.7625
    endloop
  endfacet
  facet normal 0 0 -1
    outer loop
      vertex -6.42499 -7.21875 -4.7625
      vertex -10.068 0 -4.7625
      vertex -6.42499 7.21875 -4.7625
    endloop
  endfacet
  facet normal 0 0 -1
    outer loop
      vertex -14.9647 -7.075 -4.7625
      vertex -6.42499 -7.21875 -4.7625
      vertex -6.92598 -9.15498 -4.7625
    endloop
  endfacet
  facet normal 0 0 -1
    outer loop
      vertex -10.1137 0.229599 -4.7625
      vertex -6.42499 7.21875 -4.7625
      vertex -10.068 0 -4.7625
    endloop
  endfacet
  facet normal 0 0 -1
    outer loop
      vertex -10.2437 0.424255 -4.7625
      vertex -6.42499 7.21875 -4.7625
      vertex -10.1137 0.229599 -4.7625
    endloop
  endfacet
  facet normal 0 0 -1
    outer loop
      vertex -6.42499 -7.21875 -4.7625
      vertex -10.1137 -0.229599 -4.7625
      vertex -10.068 0 -4.7625
    endloop
  endfacet
  facet normal 0 0 -1
    outer loop
      vertex -6.42499 -7.21875 -4.7625
      vertex -10.2437 -0.424255 -4.7625
      vertex -10.1137 -0.229599 -4.7625
    endloop
  endfacet
  facet normal 0 0 -1
    outer loop
      vertex -6.42499 -7.21875 -4.7625
      vertex -10.4384 -0.554321 -4.7625
      vertex -10.2437 -0.424255 -4.7625
    endloop
  endfacet
  facet normal 0 0 -1
    outer loop
      vertex -6.42499 -7.21875 -4.7625
      vertex -10.668 -0.599991 -4.7625
      vertex -10.4384 -0.554321 -4.7625
    endloop
  endfacet
  facet normal 0 0 -1
    outer loop
      vertex -6.42499 -7.21875 -4.7625
      vertex -14.925 -5.075 -4.7625
      vertex -10.668 -0.599991 -4.7625
    endloop
  endfacet
  facet normal -0 0 -1
    outer loop
      vertex -10.668 -0.599991 -4.7625
      vertex -14.925 -5.075 -4.7625
      vertex -10.8976 -0.554321 -4.7625
    endloop
  endfacet
  facet normal -0 0 -1
    outer loop
      vertex -10.8976 -0.554321 -4.7625
      vertex -14.925 -5.075 -4.7625
      vertex -11.0923 -0.424255 -4.7625
    endloop
  endfacet
  facet normal -0 0 -1
    outer loop
      vertex -11.2223 -0.229599 -4.7625
      vertex -14.925 -5.075 -4.7625
      vertex -11.268 0 -4.7625
    endloop
  endfacet
  facet normal -0 0 -1
    outer loop
      vertex -11.0923 -0.424255 -4.7625
      vertex -14.925 -5.075 -4.7625
      vertex -11.2223 -0.229599 -4.7625
    endloop
  endfacet
  facet normal 0 0 -1
    outer loop
      vertex -6.42499 -7.21875 -4.7625
      vertex -14.9647 -7.075 -4.7625
      vertex -14.925 -5.075 -4.7625
    endloop
  endfacet
  facet normal 0 0 -1
    outer loop
      vertex -25.075 -5.075 -4.7625
      vertex -14.9647 -7.075 -4.7625
      vertex -25.075 -7.075 -4.7625
    endloop
  endfacet
  facet normal 0 0 -1
    outer loop
      vertex -14.9647 -7.075 -4.7625
      vertex -25.075 -5.075 -4.7625
      vertex -14.925 -5.075 -4.7625
    endloop
  endfacet
  facet normal 0 0 -1
    outer loop
      vertex -25.8404 -6.92276 -4.7625
      vertex -25.075 -5.075 -4.7625
      vertex -25.075 -7.075 -4.7625
    endloop
  endfacet
  facet normal 0 0 -1
    outer loop
      vertex -25.075 -5.075 -4.7625
      vertex -27.075 -5.075 -4.7625
      vertex -25.075 5.075 -4.7625
    endloop
  endfacet
  facet normal 0 0 -1
    outer loop
      vertex -26.4892 -6.48921 -4.7625
      vertex -25.075 -5.075 -4.7625
      vertex -25.8404 -6.92276 -4.7625
    endloop
  endfacet
  facet normal 0 0 -1
    outer loop
      vertex -27.075 5.075 -4.7625
      vertex -25.075 5.075 -4.7625
      vertex -27.075 -5.075 -4.7625
    endloop
  endfacet
  facet normal 0 0 -1
    outer loop
      vertex -26.9228 -5.84036 -4.7625
      vertex -25.075 -5.075 -4.7625
      vertex -26.4892 -6.48921 -4.7625
    endloop
  endfacet
  facet normal 0 -0 -1
    outer loop
      vertex -26.9228 5.84036 -4.7625
      vertex -25.075 5.075 -4.7625
      vertex -27.075 5.075 -4.7625
    endloop
  endfacet
  facet normal -0 0 -1
    outer loop
      vertex -25.075 -5.075 -4.7625
      vertex -26.9228 -5.84036 -4.7625
      vertex -27.075 -5.075 -4.7625
    endloop
  endfacet
  facet normal 0 0 -1
    outer loop
      vertex -25.075 5.075 -4.7625
      vertex -25.8404 6.92276 -4.7625
      vertex -25.075 7.075 -4.7625
    endloop
  endfacet
  facet normal 0 0 -1
    outer loop
      vertex -25.075 5.075 -4.7625
      vertex -26.4892 6.48921 -4.7625
      vertex -25.8404 6.92276 -4.7625
    endloop
  endfacet
  facet normal 0 0 -1
    outer loop
      vertex -25.075 5.075 -4.7625
      vertex -26.9228 5.84036 -4.7625
      vertex -26.4892 6.48921 -4.7625
    endloop
  endfacet
  facet normal -0 0 -1
    outer loop
      vertex 9.19035 9.06651 -4.7625
      vertex 6.42499 7.21875 -4.7625
      vertex 8.42499 9.21875 -4.7625
    endloop
  endfacet
  facet normal 0 0 -1
    outer loop
      vertex -6.42499 9.21875 -4.7625
      vertex 6.42499 7.21875 -4.7625
      vertex -6.42499 7.21875 -4.7625
    endloop
  endfacet
  facet normal 0 0 -1
    outer loop
      vertex 6.42499 7.21875 -4.7625
      vertex -6.42499 9.21875 -4.7625
      vertex 8.42499 9.21875 -4.7625
    endloop
  endfacet
  facet normal 0 0 -1
    outer loop
      vertex -10.4384 0.554321 -4.7625
      vertex -6.42499 7.21875 -4.7625
      vertex -10.2437 0.424255 -4.7625
    endloop
  endfacet
  facet normal 0 0 -1
    outer loop
      vertex -6.42499 7.21875 -4.7625
      vertex -6.92598 9.15498 -4.7625
      vertex -6.42499 9.21875 -4.7625
    endloop
  endfacet
  facet normal 0 0 -1
    outer loop
      vertex -10.668 0.599991 -4.7625
      vertex -6.42499 7.21875 -4.7625
      vertex -10.4384 0.554321 -4.7625
    endloop
  endfacet
  facet normal 0 0 -1
    outer loop
      vertex -14.925 5.075 -4.7625
      vertex -6.42499 7.21875 -4.7625
      vertex -10.668 0.599991 -4.7625
    endloop
  endfacet
  facet normal 0 0 -1
    outer loop
      vertex -14.925 5.075 -4.7625
      vertex -10.668 0.599991 -4.7625
      vertex -10.8976 0.554321 -4.7625
    endloop
  endfacet
  facet normal 0 0 -1
    outer loop
      vertex -14.925 5.075 -4.7625
      vertex -10.8976 0.554321 -4.7625
      vertex -11.0923 0.424255 -4.7625
    endloop
  endfacet
  facet normal 0 0 -1
    outer loop
      vertex -14.925 5.075 -4.7625
      vertex -11.0923 0.424255 -4.7625
      vertex -11.2223 0.229599 -4.7625
    endloop
  endfacet
  facet normal 0 0 -1
    outer loop
      vertex -14.925 5.075 -4.7625
      vertex -11.268 0 -4.7625
      vertex -14.925 -5.075 -4.7625
    endloop
  endfacet
  facet normal 0 0 -1
    outer loop
      vertex -11.268 0 -4.7625
      vertex -14.925 5.075 -4.7625
      vertex -11.2223 0.229599 -4.7625
    endloop
  endfacet
  facet normal 0 0 -1
    outer loop
      vertex -14.9647 7.075 -4.7625
      vertex -6.42499 7.21875 -4.7625
      vertex -14.925 5.075 -4.7625
    endloop
  endfacet
  facet normal -0 0 -1
    outer loop
      vertex -6.42499 7.21875 -4.7625
      vertex -14.9647 7.075 -4.7625
      vertex -6.92598 9.15498 -4.7625
    endloop
  endfacet
  facet normal 0 0 -1
    outer loop
      vertex -25.075 5.075 -4.7625
      vertex -14.9647 7.075 -4.7625
      vertex -14.925 5.075 -4.7625
    endloop
  endfacet
  facet normal -0 0 -1
    outer loop
      vertex -14.9647 7.075 -4.7625
      vertex -25.075 5.075 -4.7625
      vertex -25.075 7.075 -4.7625
    endloop
  endfacet
  facet normal 0 0 1
    outer loop
      vertex 6.42499 7.21875 4.7625
      vertex 10.425 7.21875 4.7625
      vertex 10.2728 7.98412 4.7625
    endloop
  endfacet
  facet normal 0 0 1
    outer loop
      vertex 10.425 7.21875 4.7625
      vertex 6.42499 7.21875 4.7625
      vertex 10.425 -7.21875 4.7625
    endloop
  endfacet
  facet normal 0 0 1
    outer loop
      vertex 6.42499 7.21875 4.7625
      vertex 10.2728 7.98412 4.7625
      vertex 9.8392 8.63297 4.7625
    endloop
  endfacet
  facet normal 0 0 1
    outer loop
      vertex 6.42499 -7.21875 4.7625
      vertex 10.425 -7.21875 4.7625
      vertex 6.42499 7.21875 4.7625
    endloop
  endfacet
  facet normal 0 0 1
    outer loop
      vertex 6.42499 7.21875 4.7625
      vertex 9.8392 8.63297 4.7625
      vertex 9.19035 9.06651 4.7625
    endloop
  endfacet
  facet normal 0 0 1
    outer loop
      vertex 10.425 -7.21875 4.7625
      vertex 6.42499 -7.21875 4.7625
      vertex 10.2728 -7.98412 4.7625
    endloop
  endfacet
  facet normal 0 0 1
    outer loop
      vertex 6.42499 7.21875 4.7625
      vertex 9.19035 9.06651 4.7625
      vertex 8.42499 9.21875 4.7625
    endloop
  endfacet
  facet normal 0 0 1
    outer loop
      vertex 10.2728 -7.98412 4.7625
      vertex 6.42499 -7.21875 4.7625
      vertex 9.8392 -8.63297 4.7625
    endloop
  endfacet
  facet normal 0 0 1
    outer loop
      vertex 9.8392 -8.63297 4.7625
      vertex 6.42499 -7.21875 4.7625
      vertex 9.19035 -9.06651 4.7625
    endloop
  endfacet
  facet normal -0 0 1
    outer loop
      vertex -6.42499 9.21875 4.7625
      vertex 6.42499 7.21875 4.7625
      vertex 8.42499 9.21875 4.7625
    endloop
  endfacet
  facet normal 0 0 1
    outer loop
      vertex -6.42499 9.21875 4.7625
      vertex -6.42499 7.21875 4.7625
      vertex 6.42499 7.21875 4.7625
    endloop
  endfacet
  facet normal -0 0 1
    outer loop
      vertex -6.92598 9.15498 4.7625
      vertex -6.42499 7.21875 4.7625
      vertex -6.42499 9.21875 4.7625
    endloop
  endfacet
  facet normal 0 0 1
    outer loop
      vertex -6.42499 7.21875 4.7625
      vertex -10.068 0 4.7625
      vertex -6.42499 -7.21875 4.7625
    endloop
  endfacet
  facet normal 0 0 1
    outer loop
      vertex -14.9647 7.075 4.7625
      vertex -6.42499 7.21875 4.7625
      vertex -6.92598 9.15498 4.7625
    endloop
  endfacet
  facet normal -0 0 1
    outer loop
      vertex -10.1137 -0.229599 4.7625
      vertex -6.42499 -7.21875 4.7625
      vertex -10.068 0 4.7625
    endloop
  endfacet
  facet normal -0 0 1
    outer loop
      vertex -10.2437 -0.424255 4.7625
      vertex -6.42499 -7.21875 4.7625
      vertex -10.1137 -0.229599 4.7625
    endloop
  endfacet
  facet normal 0 0 1
    outer loop
      vertex -6.42499 7.21875 4.7625
      vertex -10.1137 0.229599 4.7625
      vertex -10.068 0 4.7625
    endloop
  endfacet
  facet normal 0 0 1
    outer loop
      vertex -6.42499 7.21875 4.7625
      vertex -10.2437 0.424255 4.7625
      vertex -10.1137 0.229599 4.7625
    endloop
  endfacet
  facet normal 0 0 1
    outer loop
      vertex -6.42499 7.21875 4.7625
      vertex -10.4384 0.554321 4.7625
      vertex -10.2437 0.424255 4.7625
    endloop
  endfacet
  facet normal 0 0 1
    outer loop
      vertex -6.42499 7.21875 4.7625
      vertex -10.668 0.599991 4.7625
      vertex -10.4384 0.554321 4.7625
    endloop
  endfacet
  facet normal 0 0 1
    outer loop
      vertex -6.42499 7.21875 4.7625
      vertex -14.925 5.075 4.7625
      vertex -10.668 0.599991 4.7625
    endloop
  endfacet
  facet normal 0 0 1
    outer loop
      vertex -10.668 0.599991 4.7625
      vertex -14.925 5.075 4.7625
      vertex -10.8976 0.554321 4.7625
    endloop
  endfacet
  facet normal 0 0 1
    outer loop
      vertex -10.8976 0.554321 4.7625
      vertex -14.925 5.075 4.7625
      vertex -11.0923 0.424255 4.7625
    endloop
  endfacet
  facet normal 0 0 1
    outer loop
      vertex -11.2223 0.229599 4.7625
      vertex -14.925 5.075 4.7625
      vertex -11.268 0 4.7625
    endloop
  endfacet
  facet normal 0 0 1
    outer loop
      vertex -11.0923 0.424255 4.7625
      vertex -14.925 5.075 4.7625
      vertex -11.2223 0.229599 4.7625
    endloop
  endfacet
  facet normal 0 0 1
    outer loop
      vertex -6.42499 7.21875 4.7625
      vertex -14.9647 7.075 4.7625
      vertex -14.925 5.075 4.7625
    endloop
  endfacet
  facet normal 0 0 1
    outer loop
      vertex -25.075 5.075 4.7625
      vertex -14.9647 7.075 4.7625
      vertex -25.075 7.075 4.7625
    endloop
  endfacet
  facet normal 0 0 1
    outer loop
      vertex -14.9647 7.075 4.7625
      vertex -25.075 5.075 4.7625
      vertex -14.925 5.075 4.7625
    endloop
  endfacet
  facet normal -0 0 1
    outer loop
      vertex -25.8404 6.92276 4.7625
      vertex -25.075 5.075 4.7625
      vertex -25.075 7.075 4.7625
    endloop
  endfacet
  facet normal 0 0 1
    outer loop
      vertex -25.075 5.075 4.7625
      vertex -27.075 5.075 4.7625
      vertex -25.075 -5.075 4.7625
    endloop
  endfacet
  facet normal -0 0 1
    outer loop
      vertex -26.4892 6.48921 4.7625
      vertex -25.075 5.075 4.7625
      vertex -25.8404 6.92276 4.7625
    endloop
  endfacet
  facet normal 0 0 1
    outer loop
      vertex -27.075 -5.075 4.7625
      vertex -25.075 -5.075 4.7625
      vertex -27.075 5.075 4.7625
    endloop
  endfacet
  facet normal -0 0 1
    outer loop
      vertex -26.9228 5.84036 4.7625
      vertex -25.075 5.075 4.7625
      vertex -26.4892 6.48921 4.7625
    endloop
  endfacet
  facet normal 0 -0 1
    outer loop
      vertex -26.9228 -5.84036 4.7625
      vertex -25.075 -5.075 4.7625
      vertex -27.075 -5.075 4.7625
    endloop
  endfacet
  facet normal 0 0 1
    outer loop
      vertex -25.075 5.075 4.7625
      vertex -26.9228 5.84036 4.7625
      vertex -27.075 5.075 4.7625
    endloop
  endfacet
  facet normal 0 0 1
    outer loop
      vertex -25.075 -5.075 4.7625
      vertex -25.8404 -6.92276 4.7625
      vertex -25.075 -7.075 4.7625
    endloop
  endfacet
  facet normal 0 0 1
    outer loop
      vertex -25.075 -5.075 4.7625
      vertex -26.4892 -6.48921 4.7625
      vertex -25.8404 -6.92276 4.7625
    endloop
  endfacet
  facet normal 0 0 1
    outer loop
      vertex -25.075 -5.075 4.7625
      vertex -26.9228 -5.84036 4.7625
      vertex -26.4892 -6.48921 4.7625
    endloop
  endfacet
  facet normal 0 0 1
    outer loop
      vertex 9.19035 -9.06651 4.7625
      vertex 6.42499 -7.21875 4.7625
      vertex 8.42499 -9.21875 4.7625
    endloop
  endfacet
  facet normal 0 0 1
    outer loop
      vertex -6.42499 -9.21875 4.7625
      vertex 6.42499 -7.21875 4.7625
      vertex -6.42499 -7.21875 4.7625
    endloop
  endfacet
  facet normal 0 0 1
    outer loop
      vertex 6.42499 -7.21875 4.7625
      vertex -6.42499 -9.21875 4.7625
      vertex 8.42499 -9.21875 4.7625
    endloop
  endfacet
  facet normal -0 0 1
    outer loop
      vertex -10.4384 -0.554321 4.7625
      vertex -6.42499 -7.21875 4.7625
      vertex -10.2437 -0.424255 4.7625
    endloop
  endfacet
  facet normal 0 0 1
    outer loop
      vertex -6.42499 -7.21875 4.7625
      vertex -6.92598 -9.15498 4.7625
      vertex -6.42499 -9.21875 4.7625
    endloop
  endfacet
  facet normal -0 0 1
    outer loop
      vertex -10.668 -0.599991 4.7625
      vertex -6.42499 -7.21875 4.7625
      vertex -10.4384 -0.554321 4.7625
    endloop
  endfacet
  facet normal -0 0 1
    outer loop
      vertex -14.925 -5.075 4.7625
      vertex -6.42499 -7.21875 4.7625
      vertex -10.668 -0.599991 4.7625
    endloop
  endfacet
  facet normal 0 0 1
    outer loop
      vertex -14.925 -5.075 4.7625
      vertex -10.668 -0.599991 4.7625
      vertex -10.8976 -0.554321 4.7625
    endloop
  endfacet
  facet normal 0 0 1
    outer loop
      vertex -14.925 -5.075 4.7625
      vertex -10.8976 -0.554321 4.7625
      vertex -11.0923 -0.424255 4.7625
    endloop
  endfacet
  facet normal 0 0 1
    outer loop
      vertex -14.925 -5.075 4.7625
      vertex -11.0923 -0.424255 4.7625
      vertex -11.2223 -0.229599 4.7625
    endloop
  endfacet
  facet normal 0 0 1
    outer loop
      vertex -14.925 -5.075 4.7625
      vertex -11.268 0 4.7625
      vertex -14.925 5.075 4.7625
    endloop
  endfacet
  facet normal 0 0 1
    outer loop
      vertex -11.268 0 4.7625
      vertex -14.925 -5.075 4.7625
      vertex -11.2223 -0.229599 4.7625
    endloop
  endfacet
  facet normal -0 0 1
    outer loop
      vertex -14.9647 -7.075 4.7625
      vertex -6.42499 -7.21875 4.7625
      vertex -14.925 -5.075 4.7625
    endloop
  endfacet
  facet normal 0 0 1
    outer loop
      vertex -6.42499 -7.21875 4.7625
      vertex -14.9647 -7.075 4.7625
      vertex -6.92598 -9.15498 4.7625
    endloop
  endfacet
  facet normal -0 0 1
    outer loop
      vertex -25.075 -5.075 4.7625
      vertex -14.9647 -7.075 4.7625
      vertex -14.925 -5.075 4.7625
    endloop
  endfacet
  facet normal 0 0 1
    outer loop
      vertex -14.9647 -7.075 4.7625
      vertex -25.075 -5.075 4.7625
      vertex -25.075 -7.075 4.7625
    endloop
  endfacet
  facet normal 0.555571 -0.831469 0
    outer loop
      vertex 9.19035 -9.06651 -4.7625
      vertex 9.8392 -8.63297 4.7625
      vertex 9.19035 -9.06651 4.7625
    endloop
  endfacet
  facet normal 0.555571 -0.831469 0
    outer loop
      vertex 9.8392 -8.63297 4.7625
      vertex 9.19035 -9.06651 -4.7625
      vertex 9.8392 -8.63297 -4.7625
    endloop
  endfacet
  facet normal 0.831469 -0.555571 0
    outer loop
      vertex 9.8392 -8.63297 4.7625
      vertex 10.2728 -7.98412 -4.7625
      vertex 10.2728 -7.98412 4.7625
    endloop
  endfacet
  facet normal 0.831469 -0.555571 0
    outer loop
      vertex 10.2728 -7.98412 -4.7625
      vertex 9.8392 -8.63297 4.7625
      vertex 9.8392 -8.63297 -4.7625
    endloop
  endfacet
  facet normal 0.980786 -0.195086 0
    outer loop
      vertex 10.2728 -7.98412 4.7625
      vertex 10.425 -7.21875 -4.7625
      vertex 10.425 -7.21875 4.7625
    endloop
  endfacet
  facet normal 0.980786 -0.195086 0
    outer loop
      vertex 10.425 -7.21875 -4.7625
      vertex 10.2728 -7.98412 4.7625
      vertex 10.2728 -7.98412 -4.7625
    endloop
  endfacet
  facet normal 1 0 0
    outer loop
      vertex 10.425 7.21875 4.7625
      vertex 10.425 1.75 -3.88578e-16
      vertex 10.425 7.21875 -4.7625
    endloop
  endfacet
  facet normal 1 0 0
    outer loop
      vertex 10.425 7.21875 4.7625
      vertex 10.425 1.61679 0.669696
      vertex 10.425 1.75 -3.88578e-16
    endloop
  endfacet
  facet normal 1 0 0
    outer loop
      vertex 10.425 7.21875 4.7625
      vertex 10.425 1.23744 1.23744
      vertex 10.425 1.61679 0.669696
    endloop
  endfacet
  facet normal 1 0 0
    outer loop
      vertex 10.425 7.21875 4.7625
      vertex 10.425 0.669696 1.61679
      vertex 10.425 1.23744 1.23744
    endloop
  endfacet
  facet normal 1 0 0
    outer loop
      vertex 10.425 7.21875 4.7625
      vertex 10.425 -5.01818e-16 1.75
      vertex 10.425 0.669696 1.61679
    endloop
  endfacet
  facet normal 1 -0 0
    outer loop
      vertex 10.425 -7.21875 4.7625
      vertex 10.425 -5.01818e-16 1.75
      vertex 10.425 7.21875 4.7625
    endloop
  endfacet
  facet normal 1 0 0
    outer loop
      vertex 10.425 -1.61679 0.669696
      vertex 10.425 -7.21875 4.7625
      vertex 10.425 -1.75 3.88578e-16
    endloop
  endfacet
  facet normal 1 0 0
    outer loop
      vertex 10.425 -1.23744 1.23744
      vertex 10.425 -7.21875 4.7625
      vertex 10.425 -1.61679 0.669696
    endloop
  endfacet
  facet normal 1 0 0
    outer loop
      vertex 10.425 -0.669696 1.61679
      vertex 10.425 -7.21875 4.7625
      vertex 10.425 -1.23744 1.23744
    endloop
  endfacet
  facet normal 1 0 0
    outer loop
      vertex 10.425 -5.01818e-16 1.75
      vertex 10.425 -7.21875 4.7625
      vertex 10.425 -0.669696 1.61679
    endloop
  endfacet
  facet normal 1 -0 0
    outer loop
      vertex 10.425 1.61679 -0.669696
      vertex 10.425 7.21875 -4.7625
      vertex 10.425 1.75 -3.88578e-16
    endloop
  endfacet
  facet normal 1 -0 0
    outer loop
      vertex 10.425 1.23744 -1.23744
      vertex 10.425 7.21875 -4.7625
      vertex 10.425 1.61679 -0.669696
    endloop
  endfacet
  facet normal 1 -0 0
    outer loop
      vertex 10.425 0.669696 -1.61679
      vertex 10.425 7.21875 -4.7625
      vertex 10.425 1.23744 -1.23744
    endloop
  endfacet
  facet normal 1 -0 0
    outer loop
      vertex 10.425 -1.27897e-15 -1.75
      vertex 10.425 7.21875 -4.7625
      vertex 10.425 0.669696 -1.61679
    endloop
  endfacet
  facet normal 1 0 0
    outer loop
      vertex 10.425 -7.21875 -4.7625
      vertex 10.425 -1.27897e-15 -1.75
      vertex 10.425 -0.669696 -1.61679
    endloop
  endfacet
  facet normal 1 0 0
    outer loop
      vertex 10.425 -7.21875 -4.7625
      vertex 10.425 -1.75 3.88578e-16
      vertex 10.425 -7.21875 4.7625
    endloop
  endfacet
  facet normal 1 0 0
    outer loop
      vertex 10.425 -1.75 3.88578e-16
      vertex 10.425 -7.21875 -4.7625
      vertex 10.425 -1.61679 -0.669696
    endloop
  endfacet
  facet normal 1 0 0
    outer loop
      vertex 10.425 -1.27897e-15 -1.75
      vertex 10.425 -7.21875 -4.7625
      vertex 10.425 7.21875 -4.7625
    endloop
  endfacet
  facet normal 1 0 0
    outer loop
      vertex 10.425 -1.23744 -1.23744
      vertex 10.425 -7.21875 -4.7625
      vertex 10.425 -0.669696 -1.61679
    endloop
  endfacet
  facet normal 1 0 0
    outer loop
      vertex 10.425 -1.61679 -0.669696
      vertex 10.425 -7.21875 -4.7625
      vertex 10.425 -1.23744 -1.23744
    endloop
  endfacet
  facet normal 0.980786 0.195086 0
    outer loop
      vertex 10.425 7.21875 4.7625
      vertex 10.2728 7.98412 -4.7625
      vertex 10.2728 7.98412 4.7625
    endloop
  endfacet
  facet normal 0.980786 0.195086 0
    outer loop
      vertex 10.2728 7.98412 -4.7625
      vertex 10.425 7.21875 4.7625
      vertex 10.425 7.21875 -4.7625
    endloop
  endfacet
  facet normal 0.831469 0.555571 0
    outer loop
      vertex 10.2728 7.98412 4.7625
      vertex 9.8392 8.63297 -4.7625
      vertex 9.8392 8.63297 4.7625
    endloop
  endfacet
  facet normal 0.831469 0.555571 0
    outer loop
      vertex 9.8392 8.63297 -4.7625
      vertex 10.2728 7.98412 4.7625
      vertex 10.2728 7.98412 -4.7625
    endloop
  endfacet
  facet normal 0.555571 0.831469 -0
    outer loop
      vertex 9.8392 8.63297 -4.7625
      vertex 9.19035 9.06651 4.7625
      vertex 9.8392 8.63297 4.7625
    endloop
  endfacet
  facet normal 0.555571 0.831469 0
    outer loop
      vertex 9.19035 9.06651 4.7625
      vertex 9.8392 8.63297 -4.7625
      vertex 9.19035 9.06651 -4.7625
    endloop
  endfacet
  facet normal 0.195086 0.980786 -0
    outer loop
      vertex 9.19035 9.06651 -4.7625
      vertex 8.42499 9.21875 4.7625
      vertex 9.19035 9.06651 4.7625
    endloop
  endfacet
  facet normal 0.195086 0.980786 0
    outer loop
      vertex 8.42499 9.21875 4.7625
      vertex 9.19035 9.06651 -4.7625
      vertex 8.42499 9.21875 -4.7625
    endloop
  endfacet
  facet normal 0 1 -0
    outer loop
      vertex 8.42499 9.21875 -4.7625
      vertex -6.42499 9.21875 4.7625
      vertex 8.42499 9.21875 4.7625
    endloop
  endfacet
  facet normal 0 1 0
    outer loop
      vertex -6.42499 9.21875 4.7625
      vertex 8.42499 9.21875 -4.7625
      vertex -6.42499 9.21875 -4.7625
    endloop
  endfacet
  facet normal -0.126262 0.991997 0
    outer loop
      vertex -6.42499 9.21875 -4.7625
      vertex -6.92598 9.15498 4.7625
      vertex -6.42499 9.21875 4.7625
    endloop
  endfacet
  facet normal -0.126262 0.991997 0
    outer loop
      vertex -6.92598 9.15498 4.7625
      vertex -6.42499 9.21875 -4.7625
      vertex -6.92598 9.15498 -4.7625
    endloop
  endfacet
  facet normal -0.250496 0.968118 0
    outer loop
      vertex -6.92598 9.15498 -4.7625
      vertex -14.9647 7.075 4.7625
      vertex -6.92598 9.15498 4.7625
    endloop
  endfacet
  facet normal -0.250496 0.968118 0
    outer loop
      vertex -14.9647 7.075 4.7625
      vertex -6.92598 9.15498 -4.7625
      vertex -14.9647 7.075 -4.7625
    endloop
  endfacet
  facet normal 0 1 -0
    outer loop
      vertex -14.9647 7.075 -4.7625
      vertex -25.075 7.075 4.7625
      vertex -14.9647 7.075 4.7625
    endloop
  endfacet
  facet normal 0 1 0
    outer loop
      vertex -25.075 7.075 4.7625
      vertex -14.9647 7.075 -4.7625
      vertex -25.075 7.075 -4.7625
    endloop
  endfacet
  facet normal -0.195086 0.980786 0
    outer loop
      vertex -25.075 7.075 -4.7625
      vertex -25.8404 6.92276 4.7625
      vertex -25.075 7.075 4.7625
    endloop
  endfacet
  facet normal -0.195086 0.980786 0
    outer loop
      vertex -25.8404 6.92276 4.7625
      vertex -25.075 7.075 -4.7625
      vertex -25.8404 6.92276 -4.7625
    endloop
  endfacet
  facet normal -0.555571 0.831469 0
    outer loop
      vertex -25.8404 6.92276 -4.7625
      vertex -26.4892 6.48921 4.7625
      vertex -25.8404 6.92276 4.7625
    endloop
  endfacet
  facet normal -0.555571 0.831469 0
    outer loop
      vertex -26.4892 6.48921 4.7625
      vertex -25.8404 6.92276 -4.7625
      vertex -26.4892 6.48921 -4.7625
    endloop
  endfacet
  facet normal -0.831469 0.555571 0
    outer loop
      vertex -26.9228 5.84036 -4.7625
      vertex -26.4892 6.48921 4.7625
      vertex -26.4892 6.48921 -4.7625
    endloop
  endfacet
  facet normal -0.831469 0.555571 0
    outer loop
      vertex -26.4892 6.48921 4.7625
      vertex -26.9228 5.84036 -4.7625
      vertex -26.9228 5.84036 4.7625
    endloop
  endfacet
  facet normal -0.980786 0.195086 0
    outer loop
      vertex -27.075 5.075 -4.7625
      vertex -26.9228 5.84036 4.7625
      vertex -26.9228 5.84036 -4.7625
    endloop
  endfacet
  facet normal -0.980786 0.195086 0
    outer loop
      vertex -26.9228 5.84036 4.7625
      vertex -27.075 5.075 -4.7625
      vertex -27.075 5.075 4.7625
    endloop
  endfacet
  facet normal -1 0 0
    outer loop
      vertex -27.075 -5.075 -4.7625
      vertex -27.075 5.075 4.7625
      vertex -27.075 5.075 -4.7625
    endloop
  endfacet
  facet normal -1 -0 0
    outer loop
      vertex -27.075 5.075 4.7625
      vertex -27.075 -5.075 -4.7625
      vertex -27.075 -5.075 4.7625
    endloop
  endfacet
  facet normal -0.980786 -0.195086 0
    outer loop
      vertex -26.9228 -5.84036 -4.7625
      vertex -27.075 -5.075 4.7625
      vertex -27.075 -5.075 -4.7625
    endloop
  endfacet
  facet normal -0.980786 -0.195086 0
    outer loop
      vertex -27.075 -5.075 4.7625
      vertex -26.9228 -5.84036 -4.7625
      vertex -26.9228 -5.84036 4.7625
    endloop
  endfacet
  facet normal -0.831469 -0.555571 0
    outer loop
      vertex -26.4892 -6.48921 -4.7625
      vertex -26.9228 -5.84036 4.7625
      vertex -26.9228 -5.84036 -4.7625
    endloop
  endfacet
  facet normal -0.831469 -0.555571 0
    outer loop
      vertex -26.9228 -5.84036 4.7625
      vertex -26.4892 -6.48921 -4.7625
      vertex -26.4892 -6.48921 4.7625
    endloop
  endfacet
  facet normal -0.555571 -0.831469 0
    outer loop
      vertex -26.4892 -6.48921 -4.7625
      vertex -25.8404 -6.92276 4.7625
      vertex -26.4892 -6.48921 4.7625
    endloop
  endfacet
  facet normal -0.555571 -0.831469 -0
    outer loop
      vertex -25.8404 -6.92276 4.7625
      vertex -26.4892 -6.48921 -4.7625
      vertex -25.8404 -6.92276 -4.7625
    endloop
  endfacet
  facet normal -0.195086 -0.980786 0
    outer loop
      vertex -25.8404 -6.92276 -4.7625
      vertex -25.075 -7.075 4.7625
      vertex -25.8404 -6.92276 4.7625
    endloop
  endfacet
  facet normal -0.195086 -0.980786 -0
    outer loop
      vertex -25.075 -7.075 4.7625
      vertex -25.8404 -6.92276 -4.7625
      vertex -25.075 -7.075 -4.7625
    endloop
  endfacet
  facet normal 0 -1 0
    outer loop
      vertex -25.075 -7.075 -4.7625
      vertex -14.9647 -7.075 4.7625
      vertex -25.075 -7.075 4.7625
    endloop
  endfacet
  facet normal 0 -1 -0
    outer loop
      vertex -14.9647 -7.075 4.7625
      vertex -25.075 -7.075 -4.7625
      vertex -14.9647 -7.075 -4.7625
    endloop
  endfacet
  facet normal -0.250496 -0.968118 0
    outer loop
      vertex -14.9647 -7.075 -4.7625
      vertex -6.92598 -9.15498 4.7625
      vertex -14.9647 -7.075 4.7625
    endloop
  endfacet
  facet normal -0.250496 -0.968118 -0
    outer loop
      vertex -6.92598 -9.15498 4.7625
      vertex -14.9647 -7.075 -4.7625
      vertex -6.92598 -9.15498 -4.7625
    endloop
  endfacet
  facet normal -0.126262 -0.991997 0
    outer loop
      vertex -6.92598 -9.15498 -4.7625
      vertex -6.42499 -9.21875 4.7625
      vertex -6.92598 -9.15498 4.7625
    endloop
  endfacet
  facet normal -0.126262 -0.991997 -0
    outer loop
      vertex -6.42499 -9.21875 4.7625
      vertex -6.92598 -9.15498 -4.7625
      vertex -6.42499 -9.21875 -4.7625
    endloop
  endfacet
  facet normal 0 -1 0
    outer loop
      vertex -6.42499 -9.21875 -4.7625
      vertex 8.42499 -9.21875 4.7625
      vertex -6.42499 -9.21875 4.7625
    endloop
  endfacet
  facet normal 0 -1 -0
    outer loop
      vertex 8.42499 -9.21875 4.7625
      vertex -6.42499 -9.21875 -4.7625
      vertex 8.42499 -9.21875 -4.7625
    endloop
  endfacet
  facet normal 0.195086 -0.980786 0
    outer loop
      vertex 8.42499 -9.21875 -4.7625
      vertex 9.19035 -9.06651 4.7625
      vertex 8.42499 -9.21875 4.7625
    endloop
  endfacet
  facet normal 0.195086 -0.980786 0
    outer loop
      vertex 9.19035 -9.06651 4.7625
      vertex 8.42499 -9.21875 -4.7625
      vertex 9.19035 -9.06651 -4.7625
    endloop
  endfacet
  facet normal 1 -0 0
    outer loop
      vertex -6.42499 -7.21875 4.7625
      vertex -6.42499 7.21875 -4.7625
      vertex -6.42499 7.21875 4.7625
    endloop
  endfacet
  facet normal 1 0 0
    outer loop
      vertex -6.42499 7.21875 -4.7625
      vertex -6.42499 -7.21875 4.7625
      vertex -6.42499 -7.21875 -4.7625
    endloop
  endfacet
  facet normal 0 -1 0
    outer loop
      vertex -6.42499 7.21875 -4.7625
      vertex 6.42499 7.21875 4.7625
      vertex -6.42499 7.21875 4.7625
    endloop
  endfacet
  facet normal 0 -1 -0
    outer loop
      vertex 6.42499 7.21875 4.7625
      vertex -6.42499 7.21875 -4.7625
      vertex 6.42499 7.21875 -4.7625
    endloop
  endfacet
  facet normal -1 0 0
    outer loop
      vertex 6.42499 7.21875 -4.7625
      vertex 6.42499 3.5 -7.77156e-16
      vertex 6.42499 7.21875 4.7625
    endloop
  endfacet
  facet normal -1 0 0
    outer loop
      vertex 6.42499 7.21875 -4.7625
      vertex 6.42499 1.75 -3.03109
      vertex 6.42499 3.5 -7.77156e-16
    endloop
  endfacet
  facet normal -1 0 0
    outer loop
      vertex 6.42499 7.21875 -4.7625
      vertex 6.42499 -1.75 -3.03109
      vertex 6.42499 1.75 -3.03109
    endloop
  endfacet
  facet normal -1 -0 0
    outer loop
      vertex 6.42499 -1.75 -3.03109
      vertex 6.42499 -7.21875 -4.7625
      vertex 6.42499 -3.5 7.77156e-16
    endloop
  endfacet
  facet normal -1 0 0
    outer loop
      vertex 6.42499 -7.21875 -4.7625
      vertex 6.42499 -1.75 -3.03109
      vertex 6.42499 7.21875 -4.7625
    endloop
  endfacet
  facet normal -1 0 0
    outer loop
      vertex 6.42499 1.75 3.03109
      vertex 6.42499 7.21875 4.7625
      vertex 6.42499 3.5 -7.77156e-16
    endloop
  endfacet
  facet normal -1 0 0
    outer loop
      vertex 6.42499 -1.75 3.03109
      vertex 6.42499 7.21875 4.7625
      vertex 6.42499 1.75 3.03109
    endloop
  endfacet
  facet normal -1 0 0
    outer loop
      vertex 6.42499 -7.21875 4.7625
      vertex 6.42499 -3.5 7.77156e-16
      vertex 6.42499 -7.21875 -4.7625
    endloop
  endfacet
  facet normal -1 0 0
    outer loop
      vertex 6.42499 -1.75 3.03109
      vertex 6.42499 -7.21875 4.7625
      vertex 6.42499 7.21875 4.7625
    endloop
  endfacet
  facet normal -1 0 0
    outer loop
      vertex 6.42499 -3.5 7.77156e-16
      vertex 6.42499 -7.21875 4.7625
      vertex 6.42499 -1.75 3.03109
    endloop
  endfacet
  facet normal 0 1 -0
    outer loop
      vertex 6.42499 -7.21875 -4.7625
      vertex -6.42499 -7.21875 4.7625
      vertex 6.42499 -7.21875 4.7625
    endloop
  endfacet
  facet normal 0 1 0
    outer loop
      vertex -6.42499 -7.21875 4.7625
      vertex 6.42499 -7.21875 -4.7625
      vertex -6.42499 -7.21875 -4.7625
    endloop
  endfacet
  facet normal 1 -0 0
    outer loop
      vertex -25.075 -5.075 4.7625
      vertex -25.075 5.075 -4.7625
      vertex -25.075 5.075 4.7625
    endloop
  endfacet
  facet normal 1 0 0
    outer loop
      vertex -25.075 5.075 -4.7625
      vertex -25.075 -5.075 4.7625
      vertex -25.075 -5.075 -4.7625
    endloop
  endfacet
  facet normal 0 -1 0
    outer loop
      vertex -25.075 5.075 -4.7625
      vertex -14.925 5.075 4.7625
      vertex -25.075 5.075 4.7625
    endloop
  endfacet
  facet normal 0 -1 -0
    outer loop
      vertex -14.925 5.075 4.7625
      vertex -25.075 5.075 -4.7625
      vertex -14.925 5.075 -4.7625
    endloop
  endfacet
  facet normal -1 0 0
    outer loop
      vertex -14.925 -5.075 -4.7625
      vertex -14.925 5.075 4.7625
      vertex -14.925 5.075 -4.7625
    endloop
  endfacet
  facet normal -1 -0 0
    outer loop
      vertex -14.925 5.075 4.7625
      vertex -14.925 -5.075 -4.7625
      vertex -14.925 -5.075 4.7625
    endloop
  endfacet
  facet normal 0 1 -0
    outer loop
      vertex -14.925 -5.075 -4.7625
      vertex -25.075 -5.075 4.7625
      vertex -14.925 -5.075 4.7625
    endloop
  endfacet
  facet normal 0 1 0
    outer loop
      vertex -25.075 -5.075 4.7625
      vertex -14.925 -5.075 -4.7625
      vertex -25.075 -5.075 -4.7625
    endloop
  endfacet
  facet normal 0.555572 0.831468 -0
    outer loop
      vertex -10.8976 -0.554321 -4.7625
      vertex -11.0923 -0.424255 4.7625
      vertex -10.8976 -0.554321 4.7625
    endloop
  endfacet
  facet normal 0.555572 0.831468 0
    outer loop
      vertex -11.0923 -0.424255 4.7625
      vertex -10.8976 -0.554321 -4.7625
      vertex -11.0923 -0.424255 -4.7625
    endloop
  endfacet
  facet normal 0.831468 0.555572 0
    outer loop
      vertex -11.0923 -0.424255 4.7625
      vertex -11.2223 -0.229599 -4.7625
      vertex -11.2223 -0.229599 4.7625
    endloop
  endfacet
  facet normal 0.831468 0.555572 0
    outer loop
      vertex -11.2223 -0.229599 -4.7625
      vertex -11.0923 -0.424255 4.7625
      vertex -11.0923 -0.424255 -4.7625
    endloop
  endfacet
  facet normal 0.980786 0.195088 0
    outer loop
      vertex -11.2223 -0.229599 4.7625
      vertex -11.268 0 -4.7625
      vertex -11.268 0 4.7625
    endloop
  endfacet
  facet normal 0.980786 0.195088 0
    outer loop
      vertex -11.268 0 -4.7625
      vertex -11.2223 -0.229599 4.7625
      vertex -11.2223 -0.229599 -4.7625
    endloop
  endfacet
  facet normal 0.980786 -0.195088 0
    outer loop
      vertex -11.268 0 4.7625
      vertex -11.2223 0.229599 -4.7625
      vertex -11.2223 0.229599 4.7625
    endloop
  endfacet
  facet normal 0.980786 -0.195088 0
    outer loop
      vertex -11.2223 0.229599 -4.7625
      vertex -11.268 0 4.7625
      vertex -11.268 0 -4.7625
    endloop
  endfacet
  facet normal 0.831468 -0.555572 0
    outer loop
      vertex -11.2223 0.229599 4.7625
      vertex -11.0923 0.424255 -4.7625
      vertex -11.0923 0.424255 4.7625
    endloop
  endfacet
  facet normal 0.831468 -0.555572 0
    outer loop
      vertex -11.0923 0.424255 -4.7625
      vertex -11.2223 0.229599 4.7625
      vertex -11.2223 0.229599 -4.7625
    endloop
  endfacet
  facet normal 0.555572 -0.831468 0
    outer loop
      vertex -11.0923 0.424255 -4.7625
      vertex -10.8976 0.554321 4.7625
      vertex -11.0923 0.424255 4.7625
    endloop
  endfacet
  facet normal 0.555572 -0.831468 0
    outer loop
      vertex -10.8976 0.554321 4.7625
      vertex -11.0923 0.424255 -4.7625
      vertex -10.8976 0.554321 -4.7625
    endloop
  endfacet
  facet normal 0.195088 -0.980786 0
    outer loop
      vertex -10.8976 0.554321 -4.7625
      vertex -10.668 0.599991 4.7625
      vertex -10.8976 0.554321 4.7625
    endloop
  endfacet
  facet normal 0.195088 -0.980786 0
    outer loop
      vertex -10.668 0.599991 4.7625
      vertex -10.8976 0.554321 -4.7625
      vertex -10.668 0.599991 -4.7625
    endloop
  endfacet
  facet normal -0.195076 -0.980788 0
    outer loop
      vertex -10.668 0.599991 -4.7625
      vertex -10.4384 0.554321 4.7625
      vertex -10.668 0.599991 4.7625
    endloop
  endfacet
  facet normal -0.195076 -0.980788 -0
    outer loop
      vertex -10.4384 0.554321 4.7625
      vertex -10.668 0.599991 -4.7625
      vertex -10.4384 0.554321 -4.7625
    endloop
  endfacet
  facet normal -0.555572 -0.831468 0
    outer loop
      vertex -10.4384 0.554321 -4.7625
      vertex -10.2437 0.424255 4.7625
      vertex -10.4384 0.554321 4.7625
    endloop
  endfacet
  facet normal -0.555572 -0.831468 -0
    outer loop
      vertex -10.2437 0.424255 4.7625
      vertex -10.4384 0.554321 -4.7625
      vertex -10.2437 0.424255 -4.7625
    endloop
  endfacet
  facet normal -0.831468 -0.555572 0
    outer loop
      vertex -10.1137 0.229599 -4.7625
      vertex -10.2437 0.424255 4.7625
      vertex -10.2437 0.424255 -4.7625
    endloop
  endfacet
  facet normal -0.831468 -0.555572 0
    outer loop
      vertex -10.2437 0.424255 4.7625
      vertex -10.1137 0.229599 -4.7625
      vertex -10.1137 0.229599 4.7625
    endloop
  endfacet
  facet normal -0.980786 -0.195088 0
    outer loop
      vertex -10.068 0 -4.7625
      vertex -10.1137 0.229599 4.7625
      vertex -10.1137 0.229599 -4.7625
    endloop
  endfacet
  facet normal -0.980786 -0.195088 0
    outer loop
      vertex -10.1137 0.229599 4.7625
      vertex -10.068 0 -4.7625
      vertex -10.068 0 4.7625
    endloop
  endfacet
  facet normal -0.980786 0.195088 0
    outer loop
      vertex -10.1137 -0.229599 -4.7625
      vertex -10.068 0 4.7625
      vertex -10.068 0 -4.7625
    endloop
  endfacet
  facet normal -0.980786 0.195088 0
    outer loop
      vertex -10.068 0 4.7625
      vertex -10.1137 -0.229599 -4.7625
      vertex -10.1137 -0.229599 4.7625
    endloop
  endfacet
  facet normal -0.831468 0.555572 0
    outer loop
      vertex -10.2437 -0.424255 -4.7625
      vertex -10.1137 -0.229599 4.7625
      vertex -10.1137 -0.229599 -4.7625
    endloop
  endfacet
  facet normal -0.831468 0.555572 0
    outer loop
      vertex -10.1137 -0.229599 4.7625
      vertex -10.2437 -0.424255 -4.7625
      vertex -10.2437 -0.424255 4.7625
    endloop
  endfacet
  facet normal -0.555572 0.831468 0
    outer loop
      vertex -10.2437 -0.424255 -4.7625
      vertex -10.4384 -0.554321 4.7625
      vertex -10.2437 -0.424255 4.7625
    endloop
  endfacet
  facet normal -0.555572 0.831468 0
    outer loop
      vertex -10.4384 -0.554321 4.7625
      vertex -10.2437 -0.424255 -4.7625
      vertex -10.4384 -0.554321 -4.7625
    endloop
  endfacet
  facet normal -0.195076 0.980788 0
    outer loop
      vertex -10.4384 -0.554321 -4.7625
      vertex -10.668 -0.599991 4.7625
      vertex -10.4384 -0.554321 4.7625
    endloop
  endfacet
  facet normal -0.195076 0.980788 0
    outer loop
      vertex -10.668 -0.599991 4.7625
      vertex -10.4384 -0.554321 -4.7625
      vertex -10.668 -0.599991 -4.7625
    endloop
  endfacet
  facet normal 0.195088 0.980786 -0
    outer loop
      vertex -10.668 -0.599991 -4.7625
      vertex -10.8976 -0.554321 4.7625
      vertex -10.668 -0.599991 4.7625
    endloop
  endfacet
  facet normal 0.195088 0.980786 0
    outer loop
      vertex -10.8976 -0.554321 4.7625
      vertex -10.668 -0.599991 -4.7625
      vertex -10.8976 -0.554321 -4.7625
    endloop
  endfacet
endsolid OpenSCAD_Model
